<svg width="48" height="48" viewBox="0 0 48 48" fill="none" xmlns="http://www.w3.org/2000/svg">
<path d="M27.5251 23.7303L46.1399 5.10858C46.591 4.65207 46.844 4.03611 46.844 3.39429C46.844 2.75247 46.591 2.13652 46.1399 1.68L46.037 1.57716C45.5808 1.12547 44.9647 0.872086 44.3227 0.872086C43.6807 0.872086 43.0647 1.12547 42.6085 1.57716L23.9959 20.224L5.38333 1.57716C4.92711 1.12547 4.31105 0.872086 3.66904 0.872086C3.02704 0.872086 2.41098 1.12547 1.95476 1.57716L1.85416 1.68C1.62525 1.90298 1.44331 2.16955 1.31909 2.46398C1.19486 2.7584 1.13086 3.07473 1.13086 3.39429C1.13086 3.71386 1.19486 4.03018 1.31909 4.32461C1.44331 4.61904 1.62525 4.8856 1.85416 5.10858L20.4668 23.7303L1.85416 42.3497C1.40304 42.8063 1.15004 43.4222 1.15004 44.064C1.15004 44.7058 1.40304 45.3218 1.85416 45.7783L1.95476 45.8812C2.41098 46.3329 3.02704 46.5862 3.66904 46.5862C4.31105 46.5862 4.92711 46.3329 5.38333 45.8812L23.9958 27.2617L42.6084 45.8812C43.0646 46.3329 43.6807 46.5862 44.3227 46.5862C44.9647 46.5862 45.5808 46.3329 46.037 45.8812L46.1398 45.7806C46.591 45.324 46.844 44.7081 46.844 44.0663C46.844 43.4245 46.591 42.8085 46.1398 42.352L27.5251 23.7303Z" fill="white"/>
</svg>
