<svg width="22" height="22" viewBox="0 0 22 22" fill="none" xmlns="http://www.w3.org/2000/svg">
<g clip-path="url(#clip0_592_746)">
<path d="M4.62831 0H17.3529C17.4238 0.042796 17.7974 0.0831894 17.9112 0.108102C18.1191 0.153771 18.3242 0.21193 18.5252 0.282264C20.3993 0.926707 21.7413 2.66529 21.9734 4.60002C21.98 4.6545 21.9867 4.72364 22 4.7755V17.2697C21.9381 17.6157 21.8872 17.9136 21.7858 18.2517C21.4541 19.3801 20.7513 20.3635 19.791 21.0425C19.2204 21.4404 18.5882 21.7284 17.91 21.8722C17.8373 21.8876 17.44 21.9729 17.4008 22H12.7233H9.32637H4.5618C4.45642 21.954 4.20855 21.9031 4.08886 21.8778C2.37441 21.5149 0.863395 20.1986 0.28724 18.5298C0.203892 18.2885 0.135965 18.0421 0.0838709 17.7922C0.0593237 17.6779 0.0422 17.4704 0 17.3763V4.60107C0.0166493 4.57611 0.101444 4.09471 0.119057 4.01483C0.300957 3.19178 0.710108 2.4107 1.25954 1.76639C1.94751 0.959602 3.00979 0.324386 4.05131 0.114829C4.22473 0.079932 4.45519 0.0585204 4.61252 0.00547018L4.62831 0Z" fill="#3C3B42"/>
<path d="M9.71258 10.8158L9.7118 9.10544C9.71217 7.64504 9.75765 6.23909 10.7982 5.12354C12.1609 3.66251 14.2655 3.943 16 4.23119L15.9992 6.97741L15.0805 6.97584C14.4798 6.97573 13.8684 6.94802 13.4072 7.43428C12.9552 7.91091 12.9589 8.5741 12.9587 9.20448L12.9599 10.8184C13.9266 10.8168 14.9409 10.7999 15.904 10.8191C15.7393 11.8715 15.5759 12.9973 15.4336 14.0524L12.9569 14.0522L12.9607 22H9.71318L9.71343 14.0512L7.0007 14.0507C7.00064 12.9837 7.01378 11.8853 7 10.8211L9.71258 10.8158Z" fill="currentColor"/>
</g>
<defs>
<clipPath id="clip0_592_746">
<rect width="22" height="22" fill="white"/>
</clipPath>
</defs>
</svg>
