<svg width="20" height="20" viewBox="0 0 20 20" fill="none" xmlns="http://www.w3.org/2000/svg">
<path d="M9.5 2C13.6421 2 17 5.35786 17 9.5C17 11.2105 16.4259 12.7861 15.4619 14.0479L18.6572 17.2422C19.0476 17.6326 19.0473 18.2657 18.6572 18.6562C18.2667 19.0468 17.6327 19.0468 17.2422 18.6562L14.0479 15.4619C12.7861 16.4259 11.2105 17 9.5 17C5.35786 17 2 13.6421 2 9.5C2 5.35786 5.35786 2 9.5 2ZM9.5 4C6.46243 4 4 6.46243 4 9.5C4 12.5376 6.46243 15 9.5 15C12.5376 15 15 12.5376 15 9.5C15 6.46243 12.5376 4 9.5 4Z" fill="currentColor"/>
</svg>
