<svg width="60" height="60" viewBox="0 0 60 60" fill="none" xmlns="http://www.w3.org/2000/svg">
<g clip-path="url(#clip0_196_1143)">
<path d="M30 0C46.5728 0 60 13.4272 60 30C60 46.5728 46.5728 60 30 60C13.4272 60 0 46.5728 0 30C0 13.4272 13.4272 0 30 0ZM47.3867 18.0537C47.9203 15.5489 46.4826 14.5627 44.8398 15.1777L9.35645 28.8535C6.93294 29.7972 6.975 31.1535 8.94629 31.7686L18.0215 34.6016L39.0918 21.3359C40.0772 20.6792 40.9813 21.0501 40.2432 21.707L23.2002 37.1064L22.543 46.4717C23.4865 46.4716 23.8991 46.0615 24.3906 45.5674L28.8252 41.2969L38.0244 48.0732C39.709 49.0166 40.8995 48.5247 41.3516 46.5117L41.3496 46.5137L47.3867 18.0537Z" fill="#C2C2C2"/>
</g>
<defs>
<clipPath id="clip0_196_1143">
<rect width="60" height="60" fill="white"/>
</clipPath>
</defs>
</svg>
