<svg width="22" height="22" viewBox="0 0 22 22" fill="none" xmlns="http://www.w3.org/2000/svg">
<g clip-path="url(#clip0_592_736)">
<rect width="22" height="22" rx="6" fill="#3C3B42"/>
<path d="M16.2513 6.11517C16.4878 6.09288 16.8345 6.16486 16.9245 6.40478C17.0798 6.81929 16.9564 7.51249 16.9003 7.93829L16.7825 8.83059C16.6339 9.90191 16.471 10.9712 16.2939 12.0379C16.1443 12.9834 15.9855 13.9274 15.8175 14.8697C15.7318 15.3455 15.6706 15.8131 15.5368 16.2785C15.3485 16.9342 14.9852 17.2657 14.3033 17.0414C14.149 16.9891 14.001 16.9194 13.8617 16.8338C13.7236 16.75 13.5887 16.6574 13.4576 16.5629C12.8906 16.1546 12.3085 15.7699 11.7343 15.3721L10.7027 14.6602C10.4801 14.508 10.2473 14.362 10.0373 14.1925C9.91391 14.0929 9.76552 13.9585 9.69632 13.8112C9.61519 13.6385 9.62958 13.4597 9.71627 13.2934C9.87783 12.9834 10.6055 12.325 10.8797 12.0649C11.2773 11.6877 13.7241 9.40389 13.8045 9.13431C13.8215 9.07746 13.8312 8.99925 13.7988 8.94589C13.7772 8.91018 13.74 8.89034 13.7011 8.88089C13.5581 8.84619 13.4286 8.92294 13.313 8.99815C12.7874 9.32651 12.2439 9.70433 11.7304 10.055L9.69478 11.449L8.7956 12.0702C8.5693 12.2267 8.34446 12.3895 8.10377 12.5223C7.88786 12.6416 7.64306 12.7393 7.39926 12.776C7.23957 12.8001 7.07407 12.7914 6.915 12.7668C6.4502 12.6949 4.54142 12.1804 4.17943 11.8982C4.09069 11.8289 4.01485 11.7362 4.00182 11.6193C3.99084 11.5209 4.03078 11.4261 4.0903 11.3506C4.20875 11.2005 4.39146 11.0964 4.55655 11.0096C4.88613 10.8363 5.243 10.6982 5.58354 10.5475L7.54744 9.67885C9.44377 8.82848 11.349 7.99899 13.2629 7.19049C13.7962 6.96636 14.3321 6.74835 14.8702 6.53649C15.2622 6.38509 15.8394 6.15659 16.2513 6.11517Z" fill="currentColor"/>
</g>
<defs>
<clipPath id="clip0_592_736">
<rect width="22" height="22" fill="white"/>
</clipPath>
</defs>
</svg>
