<svg width="22" height="22" viewBox="0 0 22 22" fill="none" xmlns="http://www.w3.org/2000/svg">
<g clip-path="url(#clip0_592_751)">
<path d="M5.01009 0H16.9869L17.0069 0.00646809C17.3152 0.10357 17.7242 0.132602 18.1202 0.25581C19.5004 0.693945 20.6565 1.65096 21.3447 2.92503C21.5671 3.34041 21.7383 3.76256 21.8402 4.22256C21.8745 4.37757 21.954 4.86664 22 4.97677V17.0504L21.9936 17.069C21.8986 17.3485 21.8612 17.7884 21.7495 18.1333C21.2948 19.5506 20.2944 20.7287 18.9695 21.4071C18.6379 21.5755 18.4434 21.6554 18.0977 21.7663C17.9148 21.8249 17.2226 21.9448 17.1382 22H4.9104C4.74392 21.9317 4.43992 21.8949 4.25483 21.8541C2.47951 21.4641 0.901961 20.036 0.317715 18.3295C0.245158 18.1185 0.186485 17.903 0.142073 17.6844C0.112027 17.5392 0.0585784 17.1722 0 17.0546V4.9471C0.055124 4.85448 0.162507 4.20993 0.212386 4.03242C0.332391 3.60538 0.449234 3.31633 0.659938 2.92357C1.34861 1.6348 2.51926 0.670899 3.91624 0.242355C4.29722 0.123958 4.67253 0.10127 5.01009 0ZM7.14871 15.6094C7.16143 15.6791 7.16626 15.7161 7.21939 15.768C8.15066 16.679 9.63256 16.6414 10.5358 15.7046C11.274 14.9389 11.2006 14.1159 11.2007 13.14L11.199 3.89804C11.7753 3.91383 12.5233 3.90373 13.0965 3.8902C13.0761 3.7356 13.068 3.57513 13.0579 3.41909L10.7179 3.41825L10.7196 12.6391C10.7196 13.0806 10.7409 13.6633 10.6639 14.0832C10.5861 14.5266 10.3722 14.9348 10.0519 15.2512C9.24567 16.0632 8.12977 16.1512 7.14871 15.6094ZM4.6327 15.769C4.61985 15.6951 4.53716 15.4854 4.51193 15.4031C4.43279 15.1469 4.37493 14.8845 4.33896 14.6188C4.19884 13.5542 4.54437 12.2384 5.20463 11.392C6.03487 10.3278 7.04561 9.74993 8.38376 9.57793L8.38694 9.56686L8.38138 9.08265C7.04943 9.11127 5.99274 9.56944 5.07609 10.5287C4.24737 11.4007 3.80357 12.569 3.84431 13.7714C3.859 14.3263 4.11688 15.4663 4.45751 15.891C4.58425 15.9463 4.69706 16.2527 4.79746 16.3034L4.82805 16.2852C4.77475 16.1667 4.62017 15.8831 4.6327 15.769Z" fill="#3C3B42"/>
<path d="M2.65517 1.89655H18.5862V20.1034H2.65517V1.89655Z" fill="#3C3B42"/>
<path d="M14.1459 3.0145C14.299 2.99408 14.4309 3.0002 14.5842 3.00345C14.6095 3.59301 14.6974 4.06299 14.9554 4.59501C14.9936 4.67383 15.104 4.85026 15.1164 4.94091C15.1109 4.95432 15.1053 4.96772 15.0998 4.98113C15.2637 5.14143 15.4461 5.37053 15.6367 5.47878C16.2822 6.03088 16.4386 6.05419 17.4635 6.52396H17.5066C17.6621 6.54005 17.8419 6.54347 18 6.54988C17.9851 6.76077 17.9872 6.99972 17.9906 7.21243C17.9981 7.6681 17.9781 8.13577 17.9931 8.58995C17.8248 8.58374 17.629 8.58012 17.4635 8.56335C16.7537 8.49211 16.0652 8.27131 15.4394 7.91431C15.1533 7.75134 14.8466 7.54034 14.5908 7.32634C14.5469 7.28962 14.492 7.20442 14.4496 7.22836C14.4458 7.25833 14.4444 7.27245 14.444 7.30256C14.4566 7.68154 14.4402 8.15627 14.4402 8.54444L14.4405 11.2635L14.4404 13.1661C14.4402 13.8137 14.4672 14.4952 14.3299 15.125C14.1595 15.9066 13.7862 16.7371 13.2607 17.3253C12.6657 17.9913 12.0893 18.4261 11.2598 18.7171C10.7696 18.8891 10.4222 18.9946 9.8845 18.9986C9.63341 19.0004 9.38327 19.0057 9.13193 18.9708C8.32099 18.8521 7.55125 18.524 6.89237 18.0166C6.79182 17.9389 6.58167 17.7831 6.5164 17.6803C6.51587 17.642 6.51192 17.6602 6.53244 17.6248C6.26512 17.4323 6.06692 17.2026 5.8437 16.9604C5.6363 16.7844 5.30343 16.3409 5.18205 16.0844C5.26009 16.1356 5.34748 16.3469 5.42249 16.4271C5.45049 16.4571 5.51424 16.5544 5.54499 16.5974C5.57842 16.6101 5.56281 16.6108 5.5934 16.5992C5.64115 16.467 5.37517 16.1301 5.38578 16.0146C5.36706 15.9372 5.27723 15.7362 5.24634 15.6365C5.16184 15.364 5.09589 15.0898 5.05239 14.8057C4.87038 13.6166 5.17072 12.2832 5.82709 11.2937C6.04025 10.9723 6.55054 10.4033 6.84838 10.1619C7.27224 9.81838 7.96097 9.47639 8.4785 9.32053C8.72257 9.24702 8.98668 9.21755 9.23653 9.17447C9.39919 9.15873 9.56238 9.14975 9.72571 9.14755C9.72179 9.62305 9.72074 10.0986 9.72257 10.5741C9.72266 10.8712 9.71349 11.2462 9.72951 11.5371C9.52697 11.5461 9.34467 11.5598 9.14959 11.6093C7.549 12.0156 6.81662 13.8932 7.62148 15.3759C7.62643 15.385 7.6187 15.4216 7.61648 15.4328C7.69228 15.5083 7.80418 15.6281 7.88771 15.6863C8.07422 15.7924 8.2456 15.8876 8.44174 15.9731C8.33967 15.9833 8.19166 15.8455 8.10445 15.8923C8.09914 15.9862 8.24181 16.0262 8.28419 16.1169C8.34593 16.1719 8.44629 16.2288 8.51663 16.2722C9.50174 16.8784 10.7669 16.6484 11.5276 15.7723C12.2707 14.9165 12.1664 13.9458 12.1638 12.9041L12.1635 10.5536L12.1626 5.18213C12.1614 4.47582 12.1823 3.71337 12.1671 3.01522L13.3257 3.01642C13.5758 3.0171 13.8951 3.02688 14.1409 3.00424L14.1459 3.0145Z" fill="currentColor"/>
</g>
<defs>
<clipPath id="clip0_592_751">
<rect width="22" height="22" fill="white"/>
</clipPath>
</defs>
</svg>
