<svg width="22" height="22" viewBox="0 0 22 22" fill="none" xmlns="http://www.w3.org/2000/svg">
<g clip-path="url(#clip0_592_741)">
<path d="M4.68813 0H17.3311C17.5262 0.0924129 18.1542 0.155352 18.452 0.257071C19.9298 0.763518 21.1092 1.8958 21.6754 3.35182C21.7791 3.61236 21.8511 3.90476 21.9102 4.17923C21.9386 4.31108 21.9596 4.53015 22 4.64492V17.3933L21.9936 17.4136C21.8891 17.7528 21.8754 18.0631 21.7319 18.4852C21.2986 19.7217 20.4233 20.7543 19.2745 21.3843C18.8686 21.6036 18.4797 21.7499 18.0319 21.8563C17.9427 21.8775 17.4837 21.9781 17.4357 22H4.55727C4.48463 21.9538 3.76696 21.8159 3.61236 21.7635C2.05297 21.235 0.849862 20.0924 0.300725 18.559C0.232188 18.3649 0.173903 18.1673 0.126113 17.9671C0.0995921 17.8548 0.0431295 17.468 0 17.3981V4.62501C0.027054 4.58782 0.116989 4.08263 0.141397 3.9806C0.556465 2.24553 1.80965 0.817027 3.51968 0.270407C3.72956 0.204887 3.94286 0.150869 4.1586 0.108592C4.29021 0.0841277 4.55712 0.0468065 4.67171 0.00601625L4.68813 0Z" fill="#3C3B42"/>
<path fill-rule="evenodd" clip-rule="evenodd" d="M10.5576 3.01848C11.0249 2.96807 11.8445 3.02906 12.3055 3.10195C14.3911 3.4371 16.2575 4.58444 17.4935 6.29124C18.7335 7.99667 19.238 10.125 18.8949 12.2029C18.5563 14.2775 17.4046 16.1332 15.693 17.3622C13.8455 18.6924 11.791 19.0871 9.56443 18.7304C8.69949 18.5768 8.00017 18.2874 7.2215 17.9004C5.84761 18.2628 4.37551 18.6756 3 19C3.39457 17.6812 3.78154 16.221 4.13614 14.8867C3.56235 13.9402 3.18537 12.6902 3.10251 11.591C2.92483 9.47538 3.60725 7.37726 4.99663 5.76746C6.43829 4.09978 8.36772 3.18238 10.5576 3.01848ZM11.7039 4.37273C11.4058 4.3434 10.876 4.32938 10.5667 4.35768C8.73866 4.52387 7.14491 5.28792 5.95853 6.70986C4.82781 8.05547 4.28365 9.79534 4.44685 11.5426C4.56882 12.8208 4.93323 13.6196 5.58004 14.6851C5.40652 15.4089 5.13523 16.3947 4.918 17.109C5.70167 16.9576 6.63884 16.652 7.43769 16.4682C8.1202 16.9277 9.04043 17.2772 9.84655 17.423C9.91839 17.4359 10.2047 17.481 10.2595 17.4792C12.0604 17.6639 13.7764 17.2099 15.1942 16.0591C16.5612 14.9575 17.4327 13.3599 17.6172 11.618C17.8026 9.87189 17.2798 8.12431 16.1651 6.76419C15.0564 5.4078 13.451 4.54717 11.7039 4.37273Z" fill="currentColor"/>
<path d="M8.18394 7.27245C8.38474 7.26958 8.67399 7.23562 8.85222 7.33363C9.01407 7.42261 9.65366 9.03305 9.72661 9.2872C9.57603 9.77766 9.27149 9.93134 9.02348 10.3203C9.09567 10.5613 9.23083 10.7528 9.37417 10.9569C9.86669 11.658 10.5178 12.2471 11.2854 12.6364C11.4943 12.7424 11.7773 12.8935 12.0073 12.9304C12.3045 12.9608 12.8451 11.8954 13.046 11.9026C13.4206 11.9159 14.4127 12.4883 14.8014 12.6583C14.907 12.7045 15.0393 12.7928 15.0604 12.8869C15.124 13.1698 14.993 13.6665 14.8535 13.9106C14.8394 13.9328 14.8246 13.9544 14.8089 13.9755C14.5158 14.3689 13.9897 14.6341 13.5131 14.7152C12.4618 14.8943 10.6228 14.0335 9.82222 13.4188C8.63886 12.4582 7.32408 10.983 7.01408 9.47178C6.86198 8.73039 7.35867 7.38035 8.18394 7.27245Z" fill="currentColor"/>
</g>
<defs>
<clipPath id="clip0_592_741">
<rect width="22" height="22" fill="white"/>
</clipPath>
</defs>
</svg>
