<svg width="24" height="24" viewBox="0 0 24 24" fill="none" xmlns="http://www.w3.org/2000/svg">
<path d="M18.5949 5.66738H18.1074V5.4377C18.1074 3.2627 16.3613 1.49316 14.2168 1.49316H5.4043C3.25977 1.49316 1.51367 3.2627 1.51367 5.4377V14.3721C1.51367 16.5471 3.25977 18.3166 5.4043 18.3166H5.8918V18.5463C5.8918 20.7213 7.63789 22.4908 9.78242 22.4908H18.5949C20.7395 22.4908 22.4855 20.7213 22.4855 18.5463V9.61191C22.4855 7.43691 20.7395 5.66738 18.5949 5.66738ZM5.8918 9.61191V16.4463H5.4043C4.27695 16.4463 3.3582 15.5158 3.3582 14.3721V5.4377C3.3582 4.29395 4.27695 3.36113 5.4043 3.36113H14.2168C15.3465 3.36113 16.2629 4.2916 16.2629 5.4377V5.66738H9.78242C7.63789 5.66738 5.8918 7.43691 5.8918 9.61191ZM20.641 18.5463C20.641 19.69 19.7223 20.6205 18.5949 20.6205H9.78242C8.65273 20.6205 7.73633 19.69 7.73633 18.5463V9.61191C7.73633 8.46816 8.65508 7.53535 9.78242 7.53535H18.5949C19.7246 7.53535 20.641 8.46582 20.641 9.61191V18.5463ZM17.8754 13.1439H15.1098V10.3408C15.1098 9.82754 14.6949 9.40566 14.1887 9.40566C13.6824 9.40566 13.2676 9.8252 13.2676 10.3408V13.1439H10.502C9.9957 13.1439 9.58086 13.5658 9.58086 14.0791C9.58086 14.5924 9.9957 15.0143 10.502 15.0143H13.2676V17.8174C13.2676 18.3307 13.6824 18.7525 14.1887 18.7525C14.6949 18.7525 15.1098 18.333 15.1098 17.8174V15.0119H17.8754C18.3816 15.0119 18.7965 14.5924 18.7965 14.0768C18.7988 13.5635 18.384 13.1439 17.8754 13.1439Z" fill="#FFC16F"/>
</svg>
