<svg width="40" height="40" viewBox="0 0 40 40" fill="none" xmlns="http://www.w3.org/2000/svg">
<g clip-path="url(#clip0_122_1261)">
<path d="M8.41512 0H31.5508C31.6796 0.0778109 32.3589 0.151254 32.5657 0.19655C32.9439 0.279583 33.3167 0.385327 33.6821 0.513207C37.0896 1.68492 39.5297 4.84598 39.9516 8.36367C39.9637 8.46273 39.9758 8.58844 40 8.68273V31.3995C39.8875 32.0286 39.7949 32.5701 39.6105 33.1849C39.0075 35.2365 37.7296 37.0245 35.9837 38.2591C34.9462 38.9825 33.7967 39.5062 32.5637 39.7676C32.4314 39.7957 31.7091 39.9508 31.6378 40H23.1332H16.957H8.29418C8.10258 39.9164 7.65191 39.8238 7.4343 39.7777C4.31711 39.118 1.56981 36.7247 0.522254 33.6906C0.370713 33.2518 0.24721 32.8039 0.152493 32.3494C0.107861 32.1416 0.0767273 31.7643 0 31.5932V8.36559C0.0302715 8.3202 0.184444 7.44492 0.216466 7.29969C0.547195 5.80324 1.29111 4.38309 2.29007 3.21161C3.54093 1.74473 5.47234 0.589793 7.36602 0.208779C7.68133 0.145331 8.10035 0.106401 8.38641 0.00994578L8.41512 0Z" fill="#3C3B42"/>
<path d="M17.6595 19.6647L17.6581 16.5551C17.6588 13.8998 17.7414 11.3435 19.6333 9.31527C22.111 6.65884 25.9376 7.16883 29.0912 7.6928L29.0898 12.6859L27.4194 12.6831C26.3272 12.6829 25.2156 12.6325 24.3771 13.5166C23.5552 14.3832 23.562 15.589 23.5615 16.7352L23.5638 19.6695C25.3214 19.6666 27.1655 19.636 28.9167 19.6709C28.6172 21.5843 28.3201 23.6312 28.0614 25.5496L23.5583 25.5492L23.5652 39.9997H17.6606L17.661 25.5473L12.7288 25.5464C12.7287 23.6064 12.7526 21.6094 12.7275 19.6745L17.6595 19.6647Z" fill="#C2C2C2"/>
</g>
<defs>
<clipPath id="clip0_122_1261">
<rect width="40" height="40" fill="white"/>
</clipPath>
</defs>
</svg>
