<svg width="120" height="120" viewBox="0 0 120 120" fill="none" xmlns="http://www.w3.org/2000/svg">
<g clip-path="url(#clip0_196_741)">
<path d="M25.2454 0H94.6523C95.0388 0.233433 97.0766 0.453761 97.6972 0.589649C98.8316 0.838748 99.95 1.15598 101.046 1.53962C111.269 5.05477 118.589 14.5379 119.855 25.091C119.891 25.3882 119.927 25.7653 120 26.0482V94.1984C119.662 96.0859 119.385 97.7104 118.832 99.5546C117.023 105.71 113.189 111.073 107.951 114.777C104.839 116.948 101.39 118.519 97.691 119.303C97.2943 119.387 95.1273 119.852 94.9134 120H69.3997H50.8711H24.8825C24.3077 119.749 22.9557 119.471 22.3029 119.333C12.9513 117.354 4.70943 110.174 1.56676 101.072C1.11214 99.7555 0.741629 98.4116 0.457478 97.0482C0.323584 96.4249 0.230182 95.2929 0 94.7796V25.0968C0.0908145 24.9606 0.553331 22.3348 0.649399 21.8991C1.64159 17.4097 3.87332 13.1493 6.87021 9.63483C10.6228 5.23419 16.417 1.76938 22.098 0.626338C23.044 0.435993 24.3011 0.319202 25.1592 0.0298373L25.2454 0Z" fill="#0C8AF0"/>
<path d="M52.9776 58.9952L52.9733 49.6662C52.9753 41.7004 53.2234 34.0316 58.899 27.9468C66.3322 19.9775 77.8118 21.5075 87.2725 23.0794L87.2684 38.0588L82.2572 38.0502C78.9805 38.0496 75.6457 37.8985 73.1302 40.5508C70.6646 43.1506 70.685 46.768 70.6835 50.2064L70.6904 59.0094C75.9633 59.0009 81.4957 58.909 86.749 59.0137C85.8506 64.7539 84.9592 70.8946 84.1833 76.6497L70.6738 76.6487L70.6945 120H52.9808L52.9822 76.6429L38.1854 76.6401C38.1851 70.8201 38.2568 64.8292 38.1816 59.0245L52.9776 58.9952Z" fill="#FEFEFE"/>
</g>
<defs>
<clipPath id="clip0_196_741">
<rect width="120" height="120" fill="white"/>
</clipPath>
</defs>
</svg>
