<svg width="120" height="120" viewBox="0 0 120 120" fill="none" xmlns="http://www.w3.org/2000/svg">
<g clip-path="url(#clip0_196_739)">
<rect width="120" height="120" rx="32.7273" fill="#25A5E3"/>
<path d="M88.6435 33.3544C89.9336 33.2329 91.825 33.6255 92.3154 34.9342C93.1629 37.1951 92.4895 40.9762 92.1834 43.2987L91.5412 48.1658C90.7307 54.0094 89.8417 59.8417 88.8763 65.6605C88.06 70.8178 87.194 75.9666 86.2776 81.1062C85.8102 83.7015 85.476 86.2524 84.7465 88.791C83.7192 92.3674 81.7378 94.1755 78.0181 92.9521C77.1764 92.6669 76.369 92.2867 75.6095 91.8199C74.8564 91.3628 74.1205 90.8576 73.405 90.3419C70.3128 88.1152 67.1377 86.0167 64.0053 83.8467L58.3785 79.9636C57.1646 79.1334 55.8947 78.3372 54.7493 77.4126C54.076 76.8696 53.2667 76.1365 52.8892 75.3331C52.4466 74.3909 52.5251 73.4156 52.998 72.5086C53.8792 70.8178 57.8482 67.2264 59.3439 65.8077C61.5125 63.7502 74.859 51.2929 75.2977 49.8225C75.3902 49.5124 75.4431 49.0858 75.2664 48.7948C75.1485 48.5999 74.9457 48.4917 74.7333 48.4402C73.9534 48.2509 73.2468 48.6695 72.6168 49.0798C69.7497 50.8709 66.785 52.9317 63.9842 54.8445L52.8808 62.448L47.9762 65.8363C46.7418 66.6899 45.5154 67.578 44.2026 68.3026C43.0249 68.9531 41.6896 69.4863 40.3598 69.6862C39.4888 69.8177 38.586 69.7702 37.7184 69.636C35.1831 69.2441 24.7716 66.4373 22.7971 64.8981C22.313 64.5205 21.8994 64.0146 21.8283 63.3771C21.7684 62.84 21.9862 62.323 22.3109 61.9116C22.957 61.0925 23.9536 60.5247 24.8541 60.0514C26.6518 59.106 28.5984 58.3527 30.4559 57.5309L41.168 52.7927C51.5116 48.1543 61.9041 43.6298 72.3432 39.2198C75.2524 37.9973 78.175 36.8082 81.1103 35.6526C83.2485 34.8267 86.3969 33.5804 88.6435 33.3544Z" fill="#FEFEFE"/>
</g>
<defs>
<clipPath id="clip0_196_739">
<rect width="120" height="120" fill="white"/>
</clipPath>
</defs>
</svg>
