<svg width="120" height="120" viewBox="0 0 120 120" fill="none" xmlns="http://www.w3.org/2000/svg">
<g clip-path="url(#clip0_196_740)">
<path d="M25.5716 0H94.5332C95.5975 0.50407 99.023 0.847377 100.647 1.40221C108.708 4.16464 115.141 10.3407 118.229 18.2827C118.795 19.7038 119.188 21.2987 119.51 22.7958C119.665 23.515 119.78 24.7099 120 25.3359V94.8724L119.965 94.9834C119.395 96.8332 119.32 98.5259 118.538 100.828C116.174 107.573 111.4 113.205 105.133 116.642C102.92 117.838 100.798 118.636 98.3561 119.216C97.8694 119.332 95.3659 119.88 95.1038 120H24.8578C24.4616 119.748 20.5471 118.996 19.7038 118.71C11.198 115.828 4.63561 109.595 1.64032 101.231C1.26648 100.172 0.948564 99.0943 0.687888 98.0024C0.54323 97.3898 0.235252 95.2802 0 94.8988V25.2273C0.147567 25.0245 0.638121 22.2689 0.771254 21.7124C3.03526 12.2483 9.87082 4.45651 19.1982 1.47495C20.343 1.11757 21.5065 0.82292 22.6833 0.592322C23.4012 0.458878 24.857 0.255308 25.4821 0.0328159L25.5716 0Z" fill="#31DB4F"/>
<path fill-rule="evenodd" clip-rule="evenodd" d="M57.5868 16.4646C60.1354 16.1896 64.6061 16.5223 67.1203 16.9198C78.4966 18.748 88.6769 25.0062 95.4185 34.316C102.182 43.6183 104.934 55.2275 103.062 66.5614C101.216 77.8772 94.9337 87.9996 85.5977 94.703C75.5206 101.958 64.3143 104.112 52.1692 102.166C47.4514 101.328 43.637 99.7498 39.3896 97.6386C31.8957 99.6152 23.8661 101.867 16.3633 103.636C18.5155 96.4429 20.6262 88.4783 22.5604 81.2005C19.4307 76.0378 17.3744 69.2195 16.9224 63.2236C15.9532 51.684 19.6756 40.2397 27.254 31.459C35.1176 22.3626 45.6418 17.3585 57.5868 16.4646ZM63.8389 23.8514C62.2133 23.6914 59.3234 23.6149 57.6364 23.7693C47.6651 24.6758 38.9719 28.8433 32.5007 36.5994C26.3332 43.939 23.365 53.4293 24.2552 62.9599C24.9205 69.9317 26.9082 74.2887 30.4362 80.1008C29.4897 84.0488 28.01 89.4256 26.8251 93.3219C31.0997 92.496 36.2115 90.8295 40.5689 89.8269C44.2917 92.3331 49.3111 94.2394 53.7081 95.0345C54.0999 95.1053 55.6617 95.3512 55.9608 95.341C65.7839 96.3489 75.1436 93.8721 82.8772 87.5953C90.3334 81.5863 95.0874 72.8724 96.0935 63.3711C97.1049 53.8468 94.2533 44.3146 88.1729 36.8957C82.1257 29.4973 73.3687 24.8029 63.8389 23.8514Z" fill="#FDFDFD"/>
<path d="M44.6393 39.6681C45.7346 39.6524 47.3123 39.4672 48.2845 40.0017C49.1673 40.4871 52.656 49.2713 53.0539 50.6576C52.2325 53.3328 50.5714 54.1711 49.2186 56.2924C49.6124 57.607 50.3496 58.652 51.1315 59.765C53.818 63.5891 57.3694 66.8023 61.5563 68.9262C62.6959 69.5043 64.2393 70.3286 65.4942 70.5296C67.1153 70.6953 70.0636 64.8841 71.1595 64.9233C73.2027 64.9961 78.6144 68.1184 80.7346 69.0454C81.3107 69.2974 82.0321 69.7793 82.1473 70.2921C82.4941 71.8356 81.7795 74.5444 81.0186 75.8759C80.942 75.997 80.8609 76.1152 80.7754 76.2302C79.1767 78.3762 76.307 79.8225 73.7077 80.2651C67.9729 81.2417 57.9422 76.5464 53.5754 73.1936C47.1207 67.9538 39.9492 59.9072 38.2582 51.6644C37.4286 47.6205 40.1378 40.2566 44.6393 39.6681Z" fill="#FDFDFD"/>
</g>
<defs>
<clipPath id="clip0_196_740">
<rect width="120" height="120" fill="white"/>
</clipPath>
</defs>
</svg>
