<svg width="377" height="339" viewBox="0 0 377 339" fill="none" xmlns="http://www.w3.org/2000/svg">
<g filter="url(#filter0_d_167_2428)">
<path d="M98.1816 150C98.1816 100.294 138.476 60 188.182 60C237.887 60 278.182 100.294 278.182 150C278.182 199.706 237.887 240 188.182 240C138.476 240 98.1816 199.706 98.1816 150Z" fill="#FFC16F" fill-opacity="0.1" shape-rendering="crispEdges"/>
<path d="M188.182 61.2275C237.209 61.2275 276.954 100.972 276.954 150C276.954 199.028 237.209 238.772 188.182 238.772C139.154 238.772 99.4092 199.028 99.4092 150C99.4092 100.972 139.154 61.2275 188.182 61.2275Z" stroke="url(#paint0_linear_167_2428)" stroke-width="2.45455" shape-rendering="crispEdges"/>
<path d="M231.801 107.159C233.736 106.976 236.573 107.565 237.309 109.528C238.58 112.92 237.57 118.591 237.111 122.075L236.148 129.376C234.932 138.141 233.599 146.89 232.15 155.618C230.926 163.354 229.627 171.077 228.252 178.786C227.551 182.679 227.05 186.506 225.956 190.314C224.415 195.678 221.443 198.39 215.863 196.555C214.6 196.127 213.389 195.557 212.25 194.857C211.121 194.171 210.017 193.413 208.943 192.64C204.305 189.3 199.542 186.152 194.844 182.897L186.404 177.072C184.583 175.827 182.678 174.633 180.96 173.246C179.95 172.431 178.736 171.332 178.17 170.127C177.506 168.713 177.624 167.25 178.333 165.89C179.655 163.354 185.608 157.967 187.852 155.838C191.105 152.752 211.124 134.066 211.782 131.861C211.921 131.396 212.001 130.756 211.736 130.319C211.559 130.027 211.254 129.865 210.936 129.787C209.766 129.503 208.706 130.131 207.761 130.747C203.46 133.433 199.013 136.525 194.812 139.394L178.157 150.799L170.8 155.881C168.949 157.162 167.109 158.494 165.14 159.581C163.373 160.557 161.37 161.356 159.376 161.656C158.069 161.854 156.715 161.782 155.413 161.581C151.611 160.993 135.993 156.783 133.032 154.474C132.306 153.908 131.685 153.149 131.578 152.193C131.489 151.387 131.815 150.612 132.302 149.994C133.271 148.766 134.766 147.914 136.117 147.204C138.814 145.786 141.733 144.656 144.52 143.423L160.588 136.316C176.103 129.359 191.692 122.572 207.351 115.957C211.715 114.123 216.098 112.339 220.501 110.606C223.709 109.367 228.431 107.498 231.801 107.159Z" fill="#FFC16F"/>
</g>
<defs>
<filter id="filter0_d_167_2428" x="-0.000175476" y="-38.1818" width="376.364" height="376.364" filterUnits="userSpaceOnUse" color-interpolation-filters="sRGB">
<feFlood flood-opacity="0" result="BackgroundImageFix"/>
<feColorMatrix in="SourceAlpha" type="matrix" values="0 0 0 0 0 0 0 0 0 0 0 0 0 0 0 0 0 0 127 0" result="hardAlpha"/>
<feOffset/>
<feGaussianBlur stdDeviation="49.0909"/>
<feComposite in2="hardAlpha" operator="out"/>
<feColorMatrix type="matrix" values="0 0 0 0 1 0 0 0 0 0.756863 0 0 0 0 0.435294 0 0 0 0.3 0"/>
<feBlend mode="normal" in2="BackgroundImageFix" result="effect1_dropShadow_167_2428"/>
<feBlend mode="normal" in="BackgroundImageFix" in2="effect1_dropShadow_167_2428" result="BackgroundImageFix"/>
<feBlend mode="normal" in="SourceGraphic" in2="BackgroundImageFix" result="shape"/>
</filter>
<linearGradient id="paint0_linear_167_2428" x1="253.456" y1="86.7033" x2="121.918" y2="217.253" gradientUnits="userSpaceOnUse">
<stop stop-color="#FFC16F" stop-opacity="0"/>
<stop offset="0.504808" stop-color="#FFC16F"/>
<stop offset="1" stop-color="#FFC16F" stop-opacity="0"/>
</linearGradient>
</defs>
</svg>
