<svg viewBox="97 59 182 182" fill="none" xmlns="http://www.w3.org/2000/svg">
<path d="M98.1816 150C98.1816 100.294 138.476 60 188.182 60C237.887 60 278.182 100.294 278.182 150C278.182 199.706 237.887 240 188.182 240C138.476 240 98.1816 199.706 98.1816 150Z" fill="#FFC16F" fill-opacity="0.1"/>
<path d="M188.182 61.2275C237.209 61.2275 276.954 100.972 276.954 150C276.954 199.028 237.209 238.772 188.182 238.772C139.154 238.772 99.4092 199.028 99.4092 150C99.4092 100.972 139.154 61.2275 188.182 61.2275Z" stroke="url(#paint0_linear_icon6)" stroke-width="2.45455"/>
<path d="M176.555 142.518C176.554 142.521 176.553 142.525 176.552 142.529C176.553 142.588 176.555 142.647 176.555 142.706V142.518ZM226.563 119.99C225.928 119.859 225.288 119.789 224.651 119.789H206.188V114.729C206.188 110.11 202.537 106.364 198.03 106.364H178.352C173.846 106.364 170.195 110.11 170.195 114.729V119.789H151.712C151.074 119.789 150.434 119.859 149.8 119.99C144.244 121.133 139.091 127.004 139.091 132.735V140.435C139.354 141.796 140.193 142.183 142.19 142.183H155.827C158.203 142.182 158.753 141.92 158.753 139.562V138.974C158.753 136.622 160.589 134.699 162.835 134.699H169.685C171.93 134.699 173.767 136.623 173.767 138.974V139.594C173.767 141.94 174.333 142.178 176.536 142.182V142.601C176.541 142.577 176.547 142.554 176.552 142.529C176.55 142.413 176.545 142.297 176.541 142.182C176.556 142.182 176.57 142.182 176.585 142.182H200.247C202.326 142.182 202.534 141.888 202.534 139.92V138.974C202.534 136.622 204.37 134.697 206.616 134.697H213.377C215.622 134.697 217.459 136.622 217.459 138.974V139.722C217.459 141.834 218.143 142.181 220.141 142.181H234.643C236.256 142.181 236.992 141.834 237.254 140.733V140.172C237.263 140.334 237.267 140.497 237.27 140.661C237.271 140.657 237.272 140.653 237.273 140.649V132.735C237.273 127.004 232.119 121.133 226.563 119.99ZM176.452 116.112C176.452 114.277 177.909 112.783 179.701 112.783H196.681C198.472 112.783 199.931 114.277 199.931 116.112V119.789H176.452V116.112ZM234.857 151.049H220.248C218.051 151.048 217.457 151.437 217.457 153.348V154.256C217.457 156.609 215.621 158.533 213.375 158.533H206.614C204.369 158.533 202.532 156.609 202.532 154.256V153.404C202.532 151.557 202.028 151.049 200.21 151.049H176.691C174.37 151.049 173.766 151.575 173.766 153.706V154.257C173.766 156.609 171.929 158.534 169.684 158.534H162.834C160.588 158.534 158.752 156.609 158.752 154.257V153.915C158.752 151.413 158.154 151.049 155.934 151.049H142.117C140.162 151.049 139.349 151.446 139.091 152.865V180.688C139.091 187.073 145.488 193.636 151.712 193.636H224.632C230.856 193.636 237.254 187.073 237.254 180.688V152.529C236.979 151.442 236.207 151.049 234.857 151.049ZM169.236 150.655V143.054C169.236 140.751 167.864 140.093 166.187 140.093C164.512 140.093 163.139 140.751 163.139 143.054V150.655C163.139 152.958 164.512 153.616 166.187 153.616C167.865 153.616 169.236 152.958 169.236 150.655ZM213.091 150.655V143.054C213.091 140.751 211.719 140.093 210.043 140.093C208.366 140.093 206.994 140.751 206.994 143.054V150.655C206.994 152.958 208.366 153.616 210.043 153.616C211.72 153.616 213.091 152.958 213.091 150.655Z" fill="#FFC16F"/>
<defs>
<linearGradient id="paint0_linear_icon6" x1="253.456" y1="86.7033" x2="121.918" y2="217.253" gradientUnits="userSpaceOnUse">
<stop stop-color="#FFC16F" stop-opacity="0"/>
<stop offset="0.504808" stop-color="#FFC16F"/>
<stop offset="1" stop-color="#FFC16F" stop-opacity="0"/>
</linearGradient>
</defs>
</svg>
