<svg viewBox="56 56 108 108" fill="none" xmlns="http://www.w3.org/2000/svg">
<path d="M57.2725 109.773C57.2725 80.7778 80.7775 57.2727 109.772 57.2727C138.767 57.2727 162.272 80.7778 162.272 109.773C162.272 138.768 138.767 162.273 109.772 162.273C80.7775 162.273 57.2725 138.768 57.2725 109.773Z" fill="#FFC16F" fill-opacity="0.1"/>
<path d="M109.772 57.9885C138.372 57.9885 161.557 81.1731 161.557 109.773C161.557 138.372 138.372 161.557 109.772 161.557C81.1729 161.557 57.9883 138.372 57.9883 109.773C57.9883 81.1731 81.1729 57.9885 109.772 57.9885Z" stroke="url(#paint0_linear_icon3)" stroke-width="1.43182"/>
<path d="M105.725 117.542H95.4796C94.1419 117.542 93.2192 116.073 93.6952 114.701L103.876 85.3721C104.013 84.9753 104.258 84.6338 104.576 84.3928C104.895 84.1518 105.273 84.0228 105.659 84.0227H122.839C124.194 84.0227 125.118 85.53 124.606 86.908L118.679 102.877H129.838C131.479 102.877 132.355 105.001 131.272 106.354L103.913 140.571C102.583 142.235 100.117 140.794 100.633 138.654L105.725 117.542Z" fill="#FFC16F"/>
<defs>
<linearGradient id="paint0_linear_icon3" x1="147.849" y1="72.8496" x2="71.1186" y2="149.003" gradientUnits="userSpaceOnUse">
<stop stop-color="#FFC16F" stop-opacity="0"/>
<stop offset="0.504808" stop-color="#FFC16F"/>
<stop offset="1" stop-color="#FFC16F" stop-opacity="0"/>
</linearGradient>
</defs>
</svg>
