<svg viewBox="97 59 182 182" fill="none" xmlns="http://www.w3.org/2000/svg">
<path d="M98.1816 150C98.1816 100.294 138.476 60 188.182 60C237.887 60 278.182 100.294 278.182 150C278.182 199.706 237.887 240 188.182 240C138.476 240 98.1816 199.706 98.1816 150Z" fill="#FFC16F" fill-opacity="0.1"/>
<path d="M188.182 61.2275C237.209 61.2275 276.954 100.972 276.954 150C276.954 199.028 237.209 238.772 188.182 238.772C139.154 238.772 99.4092 199.028 99.4092 150C99.4092 100.972 139.154 61.2275 188.182 61.2275Z" stroke="url(#paint0_linear_icon7)" stroke-width="2.45455"/>
<path d="M232.992 161.282C233.495 158.52 233.765 155.697 233.765 152.874C233.765 146.614 232.538 140.538 230.12 134.831C227.788 129.307 224.437 124.349 220.178 120.089C215.918 115.83 210.96 112.492 205.436 110.159C199.716 107.741 193.653 106.514 187.393 106.514C184.447 106.514 181.489 106.796 178.617 107.349C174.652 105.25 170.209 104.133 165.717 104.133C158.389 104.133 151.491 106.993 146.311 112.172C141.131 117.352 138.271 124.25 138.271 131.578C138.271 136.242 139.474 140.833 141.721 144.883C141.266 147.51 141.021 150.198 141.021 152.874C141.021 159.134 142.248 165.209 144.666 170.917C146.998 176.44 150.337 181.399 154.596 185.658C158.855 189.918 163.814 193.256 169.338 195.588C175.057 198.006 181.121 199.234 187.381 199.234C190.106 199.234 192.831 198.988 195.506 198.51C199.618 200.829 204.258 202.069 209.008 202.069C216.336 202.069 223.234 199.221 228.414 194.029C233.606 188.85 236.453 181.952 236.453 174.624C236.465 169.96 235.263 165.357 232.992 161.282ZM187.577 181.276C171.105 181.276 163.741 173.175 163.741 167.112C163.741 163.994 166.036 161.822 169.203 161.822C176.248 161.822 174.431 171.948 187.577 171.948C194.316 171.948 198.035 168.29 198.035 164.547C198.035 162.3 196.93 159.797 192.487 158.704L177.831 155.046C166.036 152.088 163.888 145.706 163.888 139.716C163.888 127.27 175.61 122.593 186.62 122.593C196.758 122.593 208.713 128.203 208.713 135.665C208.713 138.869 205.939 140.722 202.773 140.722C196.758 140.722 197.863 132.4 185.748 132.4C179.734 132.4 176.408 135.125 176.408 139.016C176.408 142.907 181.158 144.147 185.282 145.092L196.132 147.498C208.014 150.149 211.021 157.084 211.021 163.614C211.021 173.716 203.251 181.276 187.577 181.276Z" fill="#FFC16F"/>
<defs>
<linearGradient id="paint0_linear_icon7" x1="253.456" y1="86.7033" x2="121.918" y2="217.253" gradientUnits="userSpaceOnUse">
<stop stop-color="#FFC16F" stop-opacity="0"/>
<stop offset="0.504808" stop-color="#FFC16F"/>
<stop offset="1" stop-color="#FFC16F" stop-opacity="0"/>
</linearGradient>
</defs>
</svg>
