<svg width="100" height="100" viewBox="54.5 45 100 100" fill="none" xmlns="http://www.w3.org/2000/svg">
<g filter="url(#filter0_d_110_1507)">
<path d="M54.5459 95C54.5459 67.3858 76.9317 45 104.546 45C132.16 45 154.546 67.3858 154.546 95C154.546 122.614 132.16 145 104.546 145C76.9317 145 54.5459 122.614 54.5459 95Z" fill="#FFC16F" fill-opacity="0.1" shape-rendering="crispEdges"/>
<path d="M104.546 45.6816C131.784 45.6816 153.864 67.7623 153.864 95C153.864 122.238 131.784 144.318 104.546 144.318C77.3082 144.318 55.2275 122.238 55.2275 95C55.2275 67.7623 77.3082 45.6816 104.546 45.6816Z" stroke="url(#paint0_linear_110_1507)" stroke-width="1.36364" shape-rendering="crispEdges"/>
<path d="M104.5 65.4542C99.0576 65.4559 93.7213 66.9609 89.0799 69.8031C84.4385 72.6454 80.6723 76.7144 78.1969 81.5614C75.7214 86.4084 74.6329 91.8449 75.0513 97.2714C75.4698 102.698 77.379 107.903 80.5683 112.313L77.9092 120.409C77.8197 120.668 77.8054 120.947 77.8682 121.214C77.931 121.48 78.0681 121.724 78.2638 121.916C78.4563 122.111 78.6983 122.249 78.9638 122.317C79.2293 122.385 79.5082 122.379 79.7706 122.3L88.1911 119.581C92.0314 122.142 96.4184 123.767 101 124.327C105.582 124.887 110.231 124.365 114.575 122.804C118.919 121.243 122.836 118.685 126.014 115.337C129.191 111.989 131.54 107.943 132.871 103.523C134.203 99.1038 134.48 94.4337 133.682 89.8875C132.883 85.3413 131.03 81.0455 128.272 77.3444C125.514 73.6433 121.927 70.64 117.799 68.5751C113.671 66.5103 109.116 65.4414 104.5 65.4542ZM121.696 107.172C121.089 108.267 120.242 109.211 119.218 109.932C118.195 110.654 117.022 111.134 115.787 111.338C114.25 111.663 112.212 111.929 105.446 109.122C99.4305 106.214 94.3229 101.719 90.6729 96.1224C88.67 93.5691 87.4489 90.4907 87.157 87.2588C87.1109 85.9164 87.3504 84.5796 87.8598 83.3368C88.3691 82.094 89.1366 80.9736 90.1115 80.0497C90.9321 79.344 91.9839 78.9653 93.0661 78.986H94.0411C94.8979 78.986 95.3411 78.986 95.932 80.4338C96.5229 81.8815 98.3547 86.3428 98.5615 86.8156C98.7167 87.0483 98.8115 87.3161 98.8373 87.5946C98.8631 87.8732 98.8191 88.1537 98.7092 88.411C98.4559 88.9114 98.127 89.3698 97.7342 89.7701C97.3206 90.2724 96.8774 90.6565 96.4638 91.1883C96.18 91.396 95.9855 91.7036 95.9197 92.0491C95.8539 92.3946 95.9216 92.7522 96.1092 93.0497C97.4113 95.2399 99.0235 97.2302 100.896 98.9588C102.918 100.813 105.274 102.267 107.839 103.243C108.175 103.406 108.554 103.463 108.924 103.405C109.294 103.347 109.637 103.177 109.907 102.918C110.737 101.983 111.507 100.996 112.212 99.9633C112.427 99.6151 112.763 99.359 113.156 99.2444C113.549 99.1298 113.97 99.1649 114.339 99.3428C115.137 99.6088 119.361 101.706 120.248 102.12C121.134 102.534 121.696 102.77 121.902 103.125C122.212 104.467 122.141 105.869 121.696 107.172Z" fill="#FFC16F"/>
</g>
<defs>
<filter id="filter0_d_110_1507" x="0.000442505" y="-9.54546" width="209.091" height="209.091" filterUnits="userSpaceOnUse" color-interpolation-filters="sRGB">
<feFlood flood-opacity="0" result="BackgroundImageFix"/>
<feColorMatrix in="SourceAlpha" type="matrix" values="0 0 0 0 0 0 0 0 0 0 0 0 0 0 0 0 0 0 127 0" result="hardAlpha"/>
<feOffset/>
<feGaussianBlur stdDeviation="27.2727"/>
<feComposite in2="hardAlpha" operator="out"/>
<feColorMatrix type="matrix" values="0 0 0 0 1 0 0 0 0 0.756863 0 0 0 0 0.435294 0 0 0 0.3 0"/>
<feBlend mode="normal" in2="BackgroundImageFix" result="effect1_dropShadow_110_1507"/>
<feBlend mode="normal" in="BackgroundImageFix" in2="effect1_dropShadow_110_1507" result="BackgroundImageFix"/>
<feBlend mode="normal" in="SourceGraphic" in2="BackgroundImageFix" result="shape"/>
</filter>
<linearGradient id="paint0_linear_110_1507" x1="140.81" y1="59.8352" x2="67.7327" y2="132.363" gradientUnits="userSpaceOnUse">
<stop stop-color="#FFC16F" stop-opacity="0"/>
<stop offset="0.504808" stop-color="#FFC16F"/>
<stop offset="1" stop-color="#FFC16F" stop-opacity="0"/>
</linearGradient>
</defs>
</svg>
