<svg width="220" height="220" viewBox="0 0 220 220" fill="none" xmlns="http://www.w3.org/2000/svg">
<g filter="url(#filter0_d_169_1097)">
<path d="M57.2725 109.773C57.2725 80.7778 80.7775 57.2727 109.772 57.2727C138.767 57.2727 162.272 80.7778 162.272 109.773C162.272 138.768 138.767 162.273 109.772 162.273C80.7775 162.273 57.2725 138.768 57.2725 109.773Z" fill="#FFC16F" fill-opacity="0.1" shape-rendering="crispEdges"/>
<path d="M109.772 57.9885C138.372 57.9885 161.557 81.1731 161.557 109.773C161.557 138.372 138.372 161.557 109.772 161.557C81.1729 161.557 57.9883 138.372 57.9883 109.773C57.9883 81.1731 81.1729 57.9885 109.772 57.9885Z" stroke="url(#paint0_linear_169_1097)" stroke-width="1.43182" shape-rendering="crispEdges"/>
<path d="M110.273 138.909L109.625 138.673C88.8156 131.126 86.4092 121.26 86.4092 114.496V88.6604L88.2669 88.7202C102.732 89.1824 108.891 83.0562 108.949 82.9964L110.275 81.6362L111.599 82.9964C111.647 83.0456 117.485 88.7448 130.736 88.7448C130.736 88.7448 130.736 88.7448 130.738 88.7448C131.241 88.7448 131.756 88.7378 132.279 88.7202L134.136 88.6604V114.496C134.136 121.26 131.73 131.126 110.921 138.673L110.273 138.909ZM90.001 92.1154V114.496C90.001 118.133 90.0029 127.737 110.273 135.292C130.545 127.737 130.545 118.133 130.545 114.496V92.1154C119.32 92.075 112.861 88.3265 110.273 86.3899C107.683 88.3248 101.224 92.0715 90.001 92.1154ZM94.1846 111.693L97.8756 108.886L105.262 114C105.262 114 115.46 104.099 125.307 99.4788L126.713 100.966C126.713 100.966 114.406 110.536 108.076 123.244L94.1846 111.693Z" fill="#FFC16F"/>
</g>
<defs>
<filter id="filter0_d_169_1097" x="-0.000267029" y="-2.28882e-05" width="219.545" height="219.545" filterUnits="userSpaceOnUse" color-interpolation-filters="sRGB">
<feFlood flood-opacity="0" result="BackgroundImageFix"/>
<feColorMatrix in="SourceAlpha" type="matrix" values="0 0 0 0 0 0 0 0 0 0 0 0 0 0 0 0 0 0 127 0" result="hardAlpha"/>
<feOffset/>
<feGaussianBlur stdDeviation="28.6364"/>
<feComposite in2="hardAlpha" operator="out"/>
<feColorMatrix type="matrix" values="0 0 0 0 1 0 0 0 0 0.756863 0 0 0 0 0.435294 0 0 0 0.3 0"/>
<feBlend mode="normal" in2="BackgroundImageFix" result="effect1_dropShadow_169_1097"/>
<feBlend mode="normal" in="BackgroundImageFix" in2="effect1_dropShadow_169_1097" result="BackgroundImageFix"/>
<feBlend mode="normal" in="SourceGraphic" in2="BackgroundImageFix" result="shape"/>
</filter>
<linearGradient id="paint0_linear_169_1097" x1="147.849" y1="72.8496" x2="71.1186" y2="149.003" gradientUnits="userSpaceOnUse">
<stop stop-color="#FFC16F" stop-opacity="0"/>
<stop offset="0.504808" stop-color="#FFC16F"/>
<stop offset="1" stop-color="#FFC16F" stop-opacity="0"/>
</linearGradient>
</defs>
</svg>
