<svg width="220" height="220" viewBox="0 0 220 220" fill="none" xmlns="http://www.w3.org/2000/svg">
<g filter="url(#filter0_d_169_1102)">
<path d="M57.2725 109.773C57.2725 80.7778 80.7775 57.2727 109.772 57.2727C138.767 57.2727 162.272 80.7778 162.272 109.773C162.272 138.768 138.767 162.273 109.772 162.273C80.7775 162.273 57.2725 138.768 57.2725 109.773Z" fill="#FFC16F" fill-opacity="0.1" shape-rendering="crispEdges"/>
<path d="M109.772 57.9885C138.372 57.9885 161.557 81.1731 161.557 109.773C161.557 138.372 138.372 161.557 109.772 161.557C81.1729 161.557 57.9883 138.372 57.9883 109.773C57.9883 81.1731 81.1729 57.9885 109.772 57.9885Z" stroke="url(#paint0_linear_169_1102)" stroke-width="1.43182" shape-rendering="crispEdges"/>
<path d="M102.916 87.4893C105.756 87.4884 108.526 88.3651 110.849 89.9994C113.171 91.6337 114.932 93.9458 115.889 96.6191C116.847 99.2925 116.955 102.196 116.199 104.934C115.443 107.671 113.86 110.108 111.665 111.91C115.403 113.632 118.569 116.389 120.79 119.853C123.011 123.318 124.193 127.346 124.198 131.461C124.208 131.799 124.151 132.136 124.029 132.452C123.907 132.767 123.723 133.055 123.488 133.298C123.252 133.542 122.97 133.735 122.659 133.867C122.347 133.999 122.012 134.067 121.674 134.067C121.335 134.067 121 133.999 120.689 133.867C120.377 133.735 120.095 133.542 119.86 133.298C119.624 133.055 119.44 132.767 119.318 132.452C119.196 132.136 119.139 131.799 119.15 131.461C119.15 122.498 111.882 115.045 102.916 115.045C93.953 115.045 86.6847 122.498 86.6847 131.463C86.6956 131.802 86.6384 132.139 86.5164 132.454C86.3945 132.77 86.2103 133.058 85.9749 133.301C85.7394 133.544 85.4575 133.737 85.1459 133.869C84.8343 134.002 84.4993 134.07 84.1609 134.07C83.8225 134.07 83.4875 134.002 83.1759 133.869C82.8642 133.737 82.5823 133.544 82.3469 133.301C82.1115 133.058 81.9273 132.77 81.8054 132.454C81.6834 132.139 81.6262 131.802 81.637 131.463C81.6413 127.347 82.8236 123.318 85.0443 119.852C87.265 116.387 90.4313 113.629 94.1691 111.905C91.9771 110.102 90.3955 107.666 89.6405 104.93C88.8856 102.194 88.9942 99.2915 89.9514 96.6195C90.9086 93.9475 92.6678 91.6363 94.9884 90.0021C97.309 88.3679 100.078 87.4902 102.916 87.4893ZM117.63 86.4089C120.456 86.4089 123.214 87.2783 125.53 88.8992C127.845 90.52 129.606 92.814 130.574 95.4698C131.541 98.1256 131.669 101.015 130.938 103.745C130.208 106.476 128.655 108.916 126.491 110.734C133.819 113.91 138.908 120.972 138.908 129.581C138.887 130.237 138.612 130.858 138.141 131.314C137.67 131.77 137.04 132.025 136.385 132.025C135.729 132.025 135.099 131.77 134.628 131.314C134.157 130.858 133.882 130.237 133.861 129.581C133.861 122.159 128.238 115.708 120.779 114.264C119.611 112.216 118.111 110.375 116.341 108.818C117.578 109.005 118.841 108.924 120.044 108.58C121.247 108.236 122.362 107.638 123.314 106.825C124.266 106.013 125.032 105.006 125.56 103.871C126.089 102.737 126.367 101.503 126.377 100.251C126.386 99.0003 126.127 97.7616 125.616 96.6194C125.105 95.4772 124.355 94.4582 123.415 93.6313C122.476 92.8044 121.371 92.1891 120.173 91.8269C118.975 91.4647 117.714 91.3642 116.474 91.5321C115.847 91.6359 115.204 91.5012 114.672 91.1545C114.14 90.8079 113.756 90.2744 113.598 89.6592C113.44 89.0441 113.517 88.3919 113.816 87.8312C114.114 87.2706 114.612 86.8421 115.211 86.6302C115.219 86.6198 115.229 86.6172 115.24 86.6146C116.016 86.4792 116.815 86.4089 117.63 86.4089ZM102.916 92.537C101.769 92.5369 100.634 92.7627 99.5744 93.2014C98.515 93.6402 97.5524 94.2833 96.7416 95.0941C95.9307 95.9049 95.2875 96.8674 94.8487 97.9268C94.4099 98.9862 94.184 100.122 94.184 101.268C94.184 102.415 94.4099 103.55 94.8487 104.61C95.2875 105.669 95.9307 106.632 96.7416 107.442C97.5524 108.253 98.515 108.896 99.5744 109.335C100.634 109.774 101.769 110 102.916 110C105.232 109.999 107.452 109.079 109.089 107.442C110.727 105.805 111.647 103.584 111.647 101.268C111.647 98.9527 110.727 96.732 109.089 95.0946C107.452 93.4571 105.232 92.5372 102.916 92.537Z" fill="#FFC16F"/>
</g>
<defs>
<filter id="filter0_d_169_1102" x="-0.000267029" y="-2.28882e-05" width="219.545" height="219.545" filterUnits="userSpaceOnUse" color-interpolation-filters="sRGB">
<feFlood flood-opacity="0" result="BackgroundImageFix"/>
<feColorMatrix in="SourceAlpha" type="matrix" values="0 0 0 0 0 0 0 0 0 0 0 0 0 0 0 0 0 0 127 0" result="hardAlpha"/>
<feOffset/>
<feGaussianBlur stdDeviation="28.6364"/>
<feComposite in2="hardAlpha" operator="out"/>
<feColorMatrix type="matrix" values="0 0 0 0 1 0 0 0 0 0.756863 0 0 0 0 0.435294 0 0 0 0.3 0"/>
<feBlend mode="normal" in2="BackgroundImageFix" result="effect1_dropShadow_169_1102"/>
<feBlend mode="normal" in="BackgroundImageFix" in2="effect1_dropShadow_169_1102" result="BackgroundImageFix"/>
<feBlend mode="normal" in="SourceGraphic" in2="BackgroundImageFix" result="shape"/>
</filter>
<linearGradient id="paint0_linear_169_1102" x1="147.849" y1="72.8496" x2="71.1186" y2="149.003" gradientUnits="userSpaceOnUse">
<stop stop-color="#FFC16F" stop-opacity="0"/>
<stop offset="0.504808" stop-color="#FFC16F"/>
<stop offset="1" stop-color="#FFC16F" stop-opacity="0"/>
</linearGradient>
</defs>
</svg>
