<svg width="60" height="60" viewBox="0 0 60 60" fill="none" xmlns="http://www.w3.org/2000/svg">
<path d="M30.2462 45.6022C30.5101 45.6022 30.7786 45.5859 31.0489 45.5538C33.6412 45.2427 35.8425 43.4307 36.655 40.9338C36.7163 40.747 36.6278 40.5469 36.4489 40.4648C36.2722 40.3825 36.0582 40.4537 35.9582 40.6212C35.9487 40.6372 34.9188 42.3008 30.9091 42.8423C30.3089 42.9228 29.7248 42.9651 29.1712 42.9651C26.362 42.9632 25.1101 41.9044 25.0986 41.8947C24.9573 41.769 24.7415 41.7657 24.5966 41.8882C24.4503 42.0106 24.4166 42.2235 24.5164 42.3864C25.7393 44.3689 27.9337 45.6022 30.2462 45.6022ZM51.806 20.7522C51.7706 20.7522 51.7384 20.7587 51.7048 20.7587C49.3554 10.5874 40.3784 3 29.6153 3C18.5562 3 9.3732 11.0064 7.33784 21.5986C5.35883 21.9548 3.85254 23.6942 3.85254 25.7978V34.217C3.85254 36.5767 5.74481 38.4902 8.08124 38.4902C9.39919 38.4902 10.5625 37.8678 11.3363 36.912C13.2062 41.8575 17.0128 45.8451 21.8302 47.9489C21.8417 47.9239 21.9329 47.7465 22.0427 47.6051C22.1185 47.5071 22.2035 47.4269 22.2764 47.4269C22.352 47.4269 22.4213 47.4543 22.4806 47.4962C21.3657 46.666 17.3383 42.399 16.466 36.4445C16.0832 33.8236 18.0463 31.2508 20.3325 30.8253C24.0029 30.1418 27.654 29.3633 31.3243 28.6928C33.6575 28.2672 35.2519 26.9874 36.227 24.8564C36.4554 24.3582 36.7854 23.351 36.9368 21.8984C36.9769 21.6824 37.154 21.5166 37.3809 21.5166C37.5323 21.5166 37.661 21.5939 37.7463 21.7051L37.8475 21.6423C39.2941 23.7426 42.1629 28.393 42.5749 33.2965C43.048 38.9028 42.7841 42.7426 38.4929 46.6708C38.4879 46.6758 38.4814 46.682 38.4752 46.687C38.4156 46.7513 38.3801 46.8351 38.3801 46.9272C38.3801 47.0479 38.4445 47.1512 38.5377 47.2141C38.5731 47.2286 38.6086 47.248 38.644 47.2625C38.6729 47.269 38.7004 47.2784 38.7293 47.2784C38.7585 47.2784 38.7842 47.269 38.8098 47.2625C38.871 47.2303 38.9288 47.1931 38.9884 47.161C43.328 44.7702 46.6572 40.7777 48.1956 35.9756C48.8183 36.9007 49.7934 37.5666 50.926 37.7988C49.1093 46.0614 41.74 51.2327 32.6101 52.0176C32.0629 50.6604 30.7161 49.6965 29.1343 49.6965C27.0685 49.6965 25.3934 51.3327 25.3934 53.3492C25.3934 55.3657 27.0682 57 29.1343 57C30.7999 57 32.1949 55.9299 32.6791 54.4597C43.2474 53.6006 51.7193 47.3189 53.4879 37.5586C55.0502 36.9055 56.1474 35.3727 56.1474 33.5834V25.0644C56.1474 22.6834 54.2035 20.7522 51.806 20.7522ZM47.9073 23.1993C45.151 15.7326 38.0083 10.3987 29.6059 10.3987C21.2385 10.3987 14.1216 15.6875 11.3396 23.1057C11.2012 22.9364 11.0388 22.7915 10.8795 22.6447C12.4545 13.6049 20.2346 6.73166 29.6153 6.73166C38.9512 6.73166 46.707 13.5373 48.3337 22.5144C48.1729 22.7303 48.0248 22.9558 47.9073 23.1993ZM21.8308 47.9489C21.8305 47.9489 21.8305 47.9489 21.8302 47.9489C21.8285 47.9527 21.8285 47.9533 21.8308 47.9489Z" fill="#0D0C14"/>
</svg>
