<svg width="22" height="17" viewBox="0 0 22 17" fill="none" xmlns="http://www.w3.org/2000/svg">
<path d="M20.7 0V3.3C19.3 3.75 18.15 4.55 17.25 5.75C16.35 6.85 15.95 8.05 15.95 9.25C16.2 9.1 16.6 9.05 17.2 9.05C18.25 9.05 19.15 9.4 19.95 10.15C20.65 10.9 21.05 11.85 21.05 13C21.05 14.15 20.65 15.1 19.85 15.85C19.05 16.55 18.05 16.95 16.85 16.95C15.45 16.95 14.35 16.35 13.45 15.25C12.55 14.15 12.15 12.7 12.15 11C12.15 8.3 12.9 6 14.45 4.05C15.95 2.05 18.05 0.7 20.7 0ZM8.55 0V3.3C7.15 3.75 6.05 4.55 5.15 5.75C4.25 6.85 3.8 8.05 3.8 9.25C4.05 9.1 4.45 9.05 5.05 9.05C6.1 9.05 7 9.4 7.75 10.15C8.5 10.9 8.9 11.85 8.9 13C8.9 14.15 8.5 15.1 7.75 15.85C6.95 16.55 5.9 16.95 4.7 16.95C3.3 16.95 2.2 16.35 1.35 15.25C0.45 14.15 0 12.7 0 11C0 8.3 0.75 6 2.3 4.05C3.8 2.05 5.9 0.7 8.55 0Z" fill="#FFC16F"/>
</svg>
