<svg width="22" height="17" viewBox="0 0 22 17" fill="none" xmlns="http://www.w3.org/2000/svg">
<path d="M16.35 0C17.7 0 18.85 0.549999 19.75 1.65C20.6 2.75 21.05 4.2 21.05 5.95C21.05 8.6 20.25 10.9 18.75 12.9C17.2 14.85 15.1 16.2 12.5 16.95V13.65C13.85 13.15 15 12.35 15.95 11.25C16.8 10.05 17.25 8.9 17.25 7.7C16.95 7.8 16.55 7.9 16 7.9C14.9 7.9 14 7.5 13.25 6.75C12.5 6 12.15 5.05 12.15 3.95C12.15 2.75 12.55 1.8 13.35 1.1C14.1 0.349998 15.1 0 16.35 0ZM4.2 0C5.55 0 6.65 0.549999 7.55 1.65C8.45 2.75 8.9 4.2 8.9 5.95C8.9 8.6 8.1 10.9 6.6 12.9C5.05 14.85 2.95 16.2 0.35 16.95V13.65C1.7 13.15 2.85 12.35 3.75 11.25C4.65 10.05 5.1 8.9 5.1 7.7C4.8 7.8 4.4 7.9 3.85 7.9C2.75 7.9 1.85 7.5 1.15 6.75C0.35 6 0 5.05 0 3.95C0 2.75 0.35 1.8 1.15 1.1C1.95 0.349998 2.95 0 4.2 0Z" fill="#FFC16F"/>
</svg>
