<svg width="40" height="40" viewBox="0 0 40 40" fill="none" xmlns="http://www.w3.org/2000/svg">
<g clip-path="url(#clip0_122_1231)">
<rect width="40" height="40" rx="10.9091" fill="#3C3B42"/>
<path d="M29.5475 11.1183C29.9775 11.0778 30.608 11.2087 30.7715 11.6449C31.054 12.3985 30.8295 13.6589 30.7275 14.4331L30.5134 16.0554C30.2432 18.0033 29.9469 19.9474 29.6251 21.887C29.353 23.6061 29.0643 25.3223 28.7589 27.0356C28.6031 27.9007 28.4917 28.751 28.2485 29.5972C27.9061 30.7893 27.2456 31.392 26.0057 30.9842C25.7251 30.8891 25.456 30.7624 25.2029 30.6068C24.9518 30.4544 24.7065 30.286 24.468 30.1141C23.4373 29.3719 22.3789 28.6724 21.3348 27.9491L19.4592 26.6547C19.0545 26.378 18.6312 26.1126 18.2494 25.8044C18.025 25.6234 17.7552 25.379 17.6294 25.1112C17.4819 24.7971 17.5081 24.472 17.6657 24.1697C17.9594 23.6061 19.2824 22.409 19.781 21.936C20.5038 21.2502 24.9527 17.0978 25.0989 16.6077C25.1297 16.5043 25.1474 16.3621 25.0885 16.2651C25.0492 16.2001 24.9816 16.1641 24.9108 16.1469C24.6508 16.0838 24.4153 16.2233 24.2053 16.3601C23.2496 16.9571 22.2613 17.6441 21.3278 18.2817L17.6266 20.8162L15.9917 21.9456C15.5803 22.2301 15.1715 22.5261 14.7339 22.7677C14.3413 22.9845 13.8962 23.1623 13.4529 23.2289C13.1626 23.2727 12.8617 23.2569 12.5725 23.2122C11.7274 23.0815 8.25687 22.1459 7.5987 21.6329C7.43736 21.507 7.29947 21.3384 7.27576 21.1259C7.2558 20.9468 7.32842 20.7745 7.43663 20.6373C7.65201 20.3643 7.98421 20.1751 8.28437 20.0173C8.8836 19.7022 9.53246 19.4511 10.1516 19.1771L13.7223 17.5977C17.1702 16.0516 20.6344 14.5434 24.1141 13.0734C25.0838 12.6659 26.058 12.2696 27.0365 11.8844C27.7492 11.6091 28.7986 11.1936 29.5475 11.1183Z" fill="#C2C2C2"/>
</g>
<defs>
<clipPath id="clip0_122_1231">
<rect width="40" height="40" fill="white"/>
</clipPath>
</defs>
</svg>
