<svg width="22" height="19" viewBox="0 0 22 19" fill="none" xmlns="http://www.w3.org/2000/svg">
<path d="M21.1708 0.18152C20.8864 -0.0216053 20.5208 -0.0622302 20.2364 0.10027L0.492651 10.0534C0.167651 10.2159 -0.035474 10.5815 0.00515096 10.9471C0.045776 11.3128 0.289526 11.6378 0.655151 11.719L6.95203 13.6284L19.9927 1.68464L9.22703 14.319L9.59265 14.4409H9.63328L9.91765 14.5221L17.5552 16.8378C17.6364 16.8784 17.7177 16.8784 17.7989 16.8784C17.9614 16.8784 18.1239 16.8378 18.2458 16.7565C18.4489 16.6346 18.6114 16.3909 18.652 16.1471L21.4958 1.07527C21.577 0.75027 21.4552 0.42527 21.1708 0.18152ZM9.26765 18.9909L11.7052 15.5784L9.26765 14.8471V18.9909Z" fill="#0D0C14"/>
</svg>
