<svg width="60" height="60" viewBox="0 0 60 60" fill="none" xmlns="http://www.w3.org/2000/svg">
<path d="M52.5939 7.87495C51.9377 7.4062 51.0939 7.31245 50.4377 7.68745L4.87517 30.6562C4.12517 31.0312 3.65642 31.8749 3.75017 32.7187C3.84392 33.5624 4.40642 34.3124 5.25017 34.4999L19.7814 38.9062L49.8752 11.3437L25.0314 40.4999L25.8752 40.7812H25.9689L26.6252 40.9687L44.2502 46.3124C44.4377 46.4062 44.6252 46.4062 44.8127 46.4062C45.1877 46.4062 45.5627 46.3124 45.8439 46.1249C46.3127 45.8437 46.6877 45.2812 46.7814 44.7187L53.3439 9.93745C53.5314 9.18745 53.2502 8.43745 52.5939 7.87495ZM25.1252 51.2812L30.7502 43.4062L25.1252 41.7187V51.2812Z" fill="#0D0C14"/>
</svg>
