<svg width="40" height="40" viewBox="0 0 40 40" fill="none" xmlns="http://www.w3.org/2000/svg">
<g clip-path="url(#clip0_122_1257)">
<path d="M8.52387 0H31.5111C31.8658 0.168023 33.0077 0.282459 33.549 0.467402C36.236 1.38821 38.3804 3.44691 39.4098 6.09422C39.5984 6.56793 39.7293 7.09957 39.8367 7.59859C39.8883 7.83832 39.9266 8.23664 40 8.44531V31.6241L39.9883 31.6611C39.7984 32.2777 39.7734 32.842 39.5125 33.6095C38.7248 35.8577 37.1333 37.7351 35.0445 38.8805C34.3066 39.2793 33.5994 39.5453 32.7854 39.7387C32.6231 39.7773 31.7886 39.9602 31.7013 40H8.28594C8.15387 39.916 6.84902 39.6652 6.56793 39.5699C3.73268 38.6092 1.5452 36.5316 0.546773 33.7436C0.42216 33.3907 0.316188 33.0314 0.229296 32.6675C0.181077 32.4633 0.0784172 31.7601 0 31.6329V8.4091C0.0491891 8.34148 0.212707 7.42297 0.257085 7.23746C1.01175 4.08277 3.29027 1.4855 6.39941 0.491648C6.78102 0.372522 7.16883 0.274307 7.56109 0.197441C7.80039 0.152959 8.28566 0.0851027 8.49402 0.0109386L8.52387 0Z" fill="#3C3B42"/>
<path fill-rule="evenodd" clip-rule="evenodd" d="M19.1953 5.48771C20.0448 5.39605 21.535 5.50694 22.3731 5.63946C26.1652 6.24883 29.5587 8.33491 31.8058 11.4382C34.0605 14.539 34.9778 18.4087 34.3538 22.1866C33.7382 25.9586 31.6442 29.3327 28.5322 31.5672C25.1732 33.9857 21.4378 34.7034 17.3894 34.0549C15.8168 33.7756 14.5453 33.2495 13.1296 32.5457C10.6316 33.2046 7.95503 33.9551 5.4541 34.545C6.1715 32.1472 6.87508 29.4923 7.51982 27.0664C6.47656 25.3454 5.79114 23.0727 5.64048 21.074C5.31742 17.2275 6.5582 13.4128 9.08434 10.4858C11.7055 7.4537 15.2136 5.78569 19.1953 5.48771ZM21.2793 7.94998C20.7374 7.89664 19.7742 7.87116 19.2118 7.92261C15.888 8.22477 12.9903 9.61396 10.8333 12.1993C8.77739 14.6459 7.78802 17.8093 8.08474 20.9862C8.30651 23.3101 8.96907 24.7624 10.1451 26.6998C9.82959 28.0158 9.33634 29.808 8.94137 31.1068C10.3662 30.8315 12.0702 30.276 13.5226 29.9418C14.7636 30.7772 16.4367 31.4126 17.9024 31.6777C18.033 31.7013 18.5536 31.7832 18.6533 31.7798C21.9276 32.1158 25.0476 31.2902 27.6254 29.198C30.1108 27.195 31.6955 24.2903 32.0308 21.1232C32.368 17.9484 31.4175 14.771 29.3907 12.2981C27.3749 9.83193 24.4559 8.26714 21.2793 7.94998Z" fill="#C2C2C2"/>
<path d="M14.8794 13.2222C15.2445 13.217 15.7705 13.1552 16.0945 13.3334C16.3888 13.4952 17.5517 16.4233 17.6843 16.8854C17.4105 17.7771 16.8568 18.0565 16.4059 18.7637C16.5371 19.2018 16.7829 19.5502 17.0435 19.9212C17.939 21.1959 19.1228 22.2669 20.5184 22.9749C20.8983 23.1676 21.4128 23.4424 21.8311 23.5094C22.3715 23.5646 23.3542 21.6276 23.7195 21.6406C24.4006 21.6649 26.2045 22.7056 26.9112 23.0147C27.1032 23.0986 27.3437 23.2593 27.3821 23.4302C27.4977 23.9447 27.2595 24.8477 27.0059 25.2915C26.9804 25.3319 26.9533 25.3712 26.9248 25.4096C26.3919 26.1249 25.4353 26.607 24.5689 26.7545C22.6573 27.0801 19.3137 25.515 17.8581 24.3974C15.7066 22.6508 13.3161 19.9686 12.7524 17.221C12.4759 15.873 13.3789 13.4184 14.8794 13.2222Z" fill="#C2C2C2"/>
</g>
<defs>
<clipPath id="clip0_122_1257">
<rect width="40" height="40" fill="white"/>
</clipPath>
</defs>
</svg>
