<svg width="210" height="203" viewBox="0 0 210 203" fill="none" xmlns="http://www.w3.org/2000/svg">
<g filter="url(#filter0_d_180_3591)">
<path d="M54.5459 98C54.5459 70.3858 76.9317 48 104.546 48C132.16 48 154.546 70.3858 154.546 98C154.546 125.614 132.16 148 104.546 148C76.9317 148 54.5459 125.614 54.5459 98Z" fill="#FFC16F" fill-opacity="0.1" shape-rendering="crispEdges"/>
<path d="M104.546 48.6816C131.784 48.6816 153.864 70.7623 153.864 98C153.864 125.238 131.784 147.318 104.546 147.318C77.3082 147.318 55.2275 125.238 55.2275 98C55.2275 70.7623 77.3082 48.6816 104.546 48.6816Z" stroke="url(#paint0_linear_180_3591)" stroke-width="1.36364" shape-rendering="crispEdges"/>
<path d="M125.917 81.2641H129.129C130.05 81.2641 130.933 81.6299 131.584 82.2811C132.236 82.9322 132.601 83.8154 132.601 84.7363V102.097C132.601 103.018 132.236 103.901 131.584 104.553C130.933 105.204 130.05 105.57 129.129 105.57H122.808L108.279 84.5801L106.589 82.1877L96.249 86.962C95.5808 87.2705 94.8318 87.3586 94.1101 87.2137C90.9539 86.5801 89.8949 85.4759 90.9331 83.8995C91.9383 82.3735 96.216 79.304 103.768 74.6877C103.966 74.5662 104.171 74.462 104.381 74.3787C107.553 72.8856 111.173 73.4238 115.239 75.995C118.6 78.1263 122.179 79.8927 125.916 81.2641H125.917ZM79.4174 105.391C78.7267 105.16 78.126 104.718 77.7004 104.127C77.2748 103.536 77.0458 102.826 77.0459 102.097V84.7363C77.0459 83.8154 77.4117 82.9322 78.0629 82.2811C78.7141 81.6299 79.5972 81.2641 80.5181 81.2641H88.5251L88.5112 81.2762C88.0278 81.7117 87.6447 82.2468 87.3882 82.8446C87.1318 83.4425 87.0081 84.0889 87.0258 84.7392C87.0434 85.3896 87.202 86.0283 87.4905 86.6114C87.779 87.1945 88.1907 87.708 88.6969 88.1165C89.9483 89.1266 91.4396 89.7959 93.0259 90.0597C94.6123 90.3234 96.2399 90.1725 97.7508 89.6217L105.562 86.7745L111.039 94.6912C111.207 94.8527 111.359 95.0306 111.492 95.2224L121.093 109.097C121.376 109.507 121.568 109.974 121.656 110.464C121.743 110.955 121.724 111.459 121.599 111.941C121.474 112.424 121.247 112.874 120.933 113.261C120.619 113.648 120.225 113.963 119.779 114.184L104.442 121.773C103.73 122.125 102.949 122.212 102.22 122.064L102.787 121.49C104.072 120.19 104.793 118.436 104.793 116.608C104.793 114.78 104.072 113.026 102.787 111.726L91.6761 100.483C91.1917 99.9926 90.6148 99.6033 89.9788 99.3377C89.3428 99.072 88.6605 98.9352 87.9712 98.9352C87.282 98.9352 86.5997 99.072 85.9637 99.3377C85.3277 99.6033 84.7508 99.9926 84.2664 100.483L79.4157 105.391H79.4174ZM90.3028 103.898L100.157 113.867C100.582 114.297 100.887 114.83 101.042 115.415C101.198 115.999 101.198 116.614 101.042 117.198L100.546 119.078C100.434 119.5 100.221 119.888 99.925 120.208C99.6291 120.529 99.2593 120.772 98.8479 120.917C98.4365 121.062 97.9959 121.104 97.5644 121.04C97.1329 120.976 96.7237 120.807 96.3723 120.549L83.7021 111.229C83.3006 110.934 82.9675 110.556 82.7252 110.12C82.483 109.684 82.3374 109.201 82.2984 108.705C82.2594 108.208 82.3278 107.708 82.499 107.24C82.6702 106.772 82.9402 106.346 83.2907 105.992L85.3619 103.894C85.6848 103.568 86.0694 103.308 86.4933 103.131C86.9172 102.954 87.3721 102.863 87.8315 102.863C88.2909 102.863 88.7457 102.954 89.1697 103.131C89.5936 103.308 89.9782 103.568 90.3011 103.894L90.3028 103.898Z" fill="#FFC16F"/>
</g>
<defs>
<filter id="filter0_d_180_3591" x="0.000450134" y="-6.54545" width="209.091" height="209.091" filterUnits="userSpaceOnUse" color-interpolation-filters="sRGB">
<feFlood flood-opacity="0" result="BackgroundImageFix"/>
<feColorMatrix in="SourceAlpha" type="matrix" values="0 0 0 0 0 0 0 0 0 0 0 0 0 0 0 0 0 0 127 0" result="hardAlpha"/>
<feOffset/>
<feGaussianBlur stdDeviation="27.2727"/>
<feComposite in2="hardAlpha" operator="out"/>
<feColorMatrix type="matrix" values="0 0 0 0 1 0 0 0 0 0.756863 0 0 0 0 0.435294 0 0 0 0.3 0"/>
<feBlend mode="normal" in2="BackgroundImageFix" result="effect1_dropShadow_180_3591"/>
<feBlend mode="normal" in="BackgroundImageFix" in2="effect1_dropShadow_180_3591" result="BackgroundImageFix"/>
<feBlend mode="normal" in="SourceGraphic" in2="BackgroundImageFix" result="shape"/>
</filter>
<linearGradient id="paint0_linear_180_3591" x1="140.81" y1="62.8352" x2="67.7327" y2="135.363" gradientUnits="userSpaceOnUse">
<stop stop-color="#FFC16F" stop-opacity="0"/>
<stop offset="0.504808" stop-color="#FFC16F"/>
<stop offset="1" stop-color="#FFC16F" stop-opacity="0"/>
</linearGradient>
</defs>
</svg>
