<svg width="210" height="203" viewBox="0 0 210 203" fill="none" xmlns="http://www.w3.org/2000/svg">
<g filter="url(#filter0_d_180_3588)">
<path d="M54.5459 98C54.5459 70.3858 76.9317 48 104.546 48C132.16 48 154.546 70.3858 154.546 98C154.546 125.614 132.16 148 104.546 148C76.9317 148 54.5459 125.614 54.5459 98Z" fill="#FFC16F" fill-opacity="0.1" shape-rendering="crispEdges"/>
<path d="M104.546 48.6816C131.784 48.6816 153.864 70.7623 153.864 98C153.864 125.238 131.784 147.318 104.546 147.318C77.3082 147.318 55.2275 125.238 55.2275 98C55.2275 70.7623 77.3082 48.6816 104.546 48.6816Z" stroke="url(#paint0_linear_180_3588)" stroke-width="1.36364" shape-rendering="crispEdges"/>
<path d="M92.9611 94.0796L104.173 133.305L115.386 94.0796H92.9611ZM95.326 73.5557H82.41L72.3232 89.9762H88.7566L95.3261 73.5557H95.326ZM115.167 89.974L108.597 73.5557H99.7488L93.1805 89.9762L115.167 89.974ZM73.2616 94.0818L84.3849 108.197C84.4116 108.185 98.866 126.572 98.866 126.572L88.6493 94.0818H73.2616ZM113.018 73.5557L119.589 89.974L136.212 89.9762L125.935 73.5557H113.018ZM109.726 126.301L129.054 101.932C129.019 101.915 135.251 94.0818 135.251 94.0818L119.694 94.0818L109.726 126.301Z" fill="#FFC16F"/>
</g>
<defs>
<filter id="filter0_d_180_3588" x="0.000450134" y="-6.54545" width="209.091" height="209.091" filterUnits="userSpaceOnUse" color-interpolation-filters="sRGB">
<feFlood flood-opacity="0" result="BackgroundImageFix"/>
<feColorMatrix in="SourceAlpha" type="matrix" values="0 0 0 0 0 0 0 0 0 0 0 0 0 0 0 0 0 0 127 0" result="hardAlpha"/>
<feOffset/>
<feGaussianBlur stdDeviation="27.2727"/>
<feComposite in2="hardAlpha" operator="out"/>
<feColorMatrix type="matrix" values="0 0 0 0 1 0 0 0 0 0.756863 0 0 0 0 0.435294 0 0 0 0.3 0"/>
<feBlend mode="normal" in2="BackgroundImageFix" result="effect1_dropShadow_180_3588"/>
<feBlend mode="normal" in="BackgroundImageFix" in2="effect1_dropShadow_180_3588" result="BackgroundImageFix"/>
<feBlend mode="normal" in="SourceGraphic" in2="BackgroundImageFix" result="shape"/>
</filter>
<linearGradient id="paint0_linear_180_3588" x1="140.81" y1="62.8352" x2="67.7327" y2="135.363" gradientUnits="userSpaceOnUse">
<stop stop-color="#FFC16F" stop-opacity="0"/>
<stop offset="0.504808" stop-color="#FFC16F"/>
<stop offset="1" stop-color="#FFC16F" stop-opacity="0"/>
</linearGradient>
</defs>
</svg>
