<svg width="42" height="42" viewBox="0 0 42 42" fill="none" xmlns="http://www.w3.org/2000/svg">
<path d="M27.9727 10.6797C29.0143 10.6797 30.0271 10.8811 30.9785 11.2871C31.8972 11.6767 32.7221 12.2299 33.4316 12.9395C34.1371 13.6449 34.6994 14.4738 35.085 15.3926C35.4868 16.348 35.6914 17.3569 35.6914 18.3984C35.6914 19.4402 35.491 20.4538 35.085 21.4053C34.6953 22.324 34.1412 23.1488 33.4316 23.8584C33.3948 23.8952 33.3533 23.9319 33.3164 23.9688C34.5468 24.5594 35.6627 25.3551 36.6348 26.3271C37.7504 27.4469 38.6281 28.7514 39.2393 30.1992C39.8791 31.7003 40.199 33.2956 40.2031 34.9443C40.2031 35.2232 40.1912 35.5027 40.1748 35.7734H36.8115C36.8361 35.4986 36.8486 35.2232 36.8486 34.9443C36.8485 30.9497 34.1946 27.5745 30.5527 26.4834C29.7078 25.0643 28.6367 23.7969 27.3857 22.7305C27.5169 22.751 27.6482 22.7625 27.7793 22.7666C27.8613 22.7625 27.9395 22.7627 28.0215 22.7627C28.0788 22.7627 28.1322 22.7666 28.1895 22.7666C30.4985 22.6559 32.3406 20.7451 32.3408 18.4033C32.3408 15.9917 30.3843 14.0353 27.9727 14.0352C27.8004 14.0352 27.632 14.043 27.4639 14.0635C27.3818 12.9027 27.0783 11.8035 26.6025 10.8027C27.0496 10.7207 27.5092 10.6797 27.9727 10.6797ZM16.5371 6.28711C17.7594 6.28711 18.9496 6.5252 20.0693 7.00098C21.1519 7.45619 22.1197 8.10806 22.9521 8.94043C23.7807 9.77305 24.4373 10.7455 24.8926 11.8242C25.3642 12.9439 25.6064 14.1333 25.6064 15.3555C25.6064 16.5776 25.3682 17.7671 24.8926 18.8867C24.4373 19.9695 23.7848 20.9379 22.9521 21.7705C22.9072 21.8155 22.8623 21.8564 22.8174 21.9014C24.2652 22.5986 25.5735 23.5305 26.7178 24.6748C28.03 25.9913 29.0596 27.5208 29.7773 29.2227C30.5279 30.9904 30.9052 32.8651 30.9053 34.7969C30.9053 35.125 30.8926 35.4496 30.8721 35.7695H26.9229C26.9516 35.4496 26.9678 35.125 26.9678 34.7969C26.9677 29.1491 22.4519 24.5551 16.8369 24.4238C16.7344 24.4238 16.6357 24.4287 16.5332 24.4287C16.4472 24.4287 16.3653 24.4279 16.2793 24.4238C10.693 24.5879 6.21397 29.1696 6.21387 34.7969C6.21387 35.125 6.23008 35.4496 6.25879 35.7695H2.30957C2.28906 35.4455 2.27637 35.1209 2.27637 34.7969C2.27639 32.8651 2.65784 30.9904 3.4043 29.2227C4.12617 27.5165 5.16024 25.9872 6.47266 24.6748C7.59648 23.551 8.87988 22.6316 10.2949 21.9385C10.2376 21.8812 10.1804 21.8278 10.123 21.7705C9.29453 20.9379 8.63789 19.9654 8.18262 18.8867C7.71103 17.7671 7.46875 16.5776 7.46875 15.3555C7.46878 14.1333 7.70686 12.9439 8.18262 11.8242C8.63789 10.7414 9.29043 9.77305 10.123 8.94043C10.9555 8.11216 11.9274 7.45617 13.0059 7.00098C14.1255 6.52935 15.315 6.28716 16.5371 6.28711ZM16.5371 10.2285C13.7032 10.2287 11.4065 12.5255 11.4062 15.3594C11.4062 18.1196 13.5842 20.3672 16.3115 20.4863C16.4058 20.4822 16.5005 20.4824 16.5947 20.4824C16.6604 20.4824 16.7264 20.4863 16.792 20.4863C19.5071 20.355 21.6689 18.1115 21.6689 15.3594C21.6687 12.5254 19.3712 10.2285 16.5371 10.2285Z" fill="#FFC16F"/>
</svg>
