<svg width="17" height="33" viewBox="0 0 17 33" fill="none" xmlns="http://www.w3.org/2000/svg">
<path d="M4.93197 12.3923L4.93055 9.28262C4.93122 6.62734 5.01391 4.07107 6.90578 2.04281C9.38351 -0.613622 13.21 -0.10363 16.3636 0.420336L16.3623 5.41348L14.6918 5.41062C13.5996 5.41042 12.488 5.36004 11.6495 6.24414C10.8277 7.11074 10.8345 8.31655 10.834 9.46269L10.8362 12.397C12.5939 12.3942 14.438 12.3635 16.1891 12.3984C15.8897 14.3118 15.5925 16.3588 15.3339 18.2771L10.8307 18.2768L10.8376 32.7273H4.93305L4.9335 18.2748L0.00126958 18.2739C0.00115755 16.3339 0.0250581 14.3369 0 12.402L4.93197 12.3923Z" fill="#C2C2C2"/>
</svg>
