<svg width="102" height="102" viewBox="54 47 102 102" fill="none" xmlns="http://www.w3.org/2000/svg">
<g>
<path d="M54.5459 98C54.5459 70.3858 76.9317 48 104.546 48C132.16 48 154.546 70.3858 154.546 98C154.546 125.614 132.16 148 104.546 148C76.9317 148 54.5459 125.614 54.5459 98Z" fill="#FFC16F" fill-opacity="0.1" shape-rendering="crispEdges"/>
<path d="M104.546 48.6816C131.784 48.6816 153.864 70.7623 153.864 98C153.864 125.238 131.784 147.318 104.546 147.318C77.3082 147.318 55.2275 125.238 55.2275 98C55.2275 70.7623 77.3082 48.6816 104.546 48.6816Z" stroke="url(#paint0_linear_180_3585)" stroke-width="1.36364" shape-rendering="crispEdges"/>
<path d="M86.6132 97.8159C86.6132 91.5481 90.0953 85.8026 95.6667 82.6687C98.4039 81.1278 101.492 80.3183 104.633 80.3183C107.774 80.3183 110.862 81.1278 113.6 82.6687C119.171 85.8026 122.653 91.5481 122.479 97.8159C122.479 104.084 118.997 109.829 113.6 112.963C110.862 114.504 107.774 115.314 104.633 115.314C101.492 115.314 98.4039 114.504 95.6667 112.963C90.0953 109.829 86.6132 104.084 86.6132 97.8159ZM107.854 124.106C109.073 124.106 110.117 125.15 110.117 126.369C110.117 127.588 109.073 128.633 107.854 128.633H101.064C99.8452 128.633 98.8006 127.588 98.8006 126.369C98.8006 125.15 99.8452 124.106 101.064 124.106L107.854 124.106ZM104.546 78.3161C103.327 78.3161 102.283 77.2715 102.283 76.0527V69.6108C102.283 68.392 103.501 67.5215 104.72 67.5215C105.939 67.5215 106.809 68.392 106.809 69.6108V76.2268C106.809 77.2714 105.765 78.3161 104.546 78.3161ZM87.1355 84.0616L82.4347 79.5349C81.5641 78.4902 81.5641 77.0974 82.6087 76.401C83.4793 75.7045 84.698 75.7045 85.5686 76.401L90.2694 81.1018C91.1399 81.9723 90.9658 83.3652 90.0953 84.2357C89.2248 84.758 88.006 84.758 87.1355 84.0616ZM82.2605 95.7266C83.4792 95.7266 84.5238 96.7713 84.5238 97.99C84.5238 99.2087 83.4792 100.253 82.2605 100.253H75.4704C74.2517 100.079 73.207 99.2087 73.207 97.99C73.207 96.7713 74.2517 95.7266 75.4704 95.7266H82.2605ZM133.622 95.7266C134.84 95.7266 135.885 96.7713 135.885 97.99C135.885 99.2087 134.84 100.253 133.622 100.253H126.832C125.613 100.253 124.568 99.2087 124.568 97.99C124.568 96.7713 125.613 95.7266 126.832 95.7266H133.622H133.622ZM121.957 84.0615C121.086 84.9321 119.693 84.9321 118.823 84.0615C117.952 83.1909 117.952 81.7982 118.823 80.9276L123.524 76.2268C124.394 75.3562 125.787 75.3562 126.657 76.2268C127.528 77.0973 127.528 78.4901 126.657 79.3607L121.957 84.0615ZM111.859 117.49C113.077 117.49 114.122 118.534 114.122 119.753C114.122 120.972 113.077 122.017 111.859 122.017H97.2336C96.0149 122.017 94.9703 120.972 94.9703 119.753C94.9703 118.535 96.0149 117.49 97.2336 117.49H111.859Z" fill="#FFC16F"/>
</g>
<defs>
<linearGradient id="paint0_linear_180_3585" x1="140.81" y1="62.8352" x2="67.7327" y2="135.363" gradientUnits="userSpaceOnUse">
<stop stop-color="#FFC16F" stop-opacity="0"/>
<stop offset="0.504808" stop-color="#FFC16F"/>
<stop offset="1" stop-color="#FFC16F" stop-opacity="0"/>
</linearGradient>
</defs>
</svg>
