<svg width="33" height="32" viewBox="0 0 33 32" fill="none" xmlns="http://www.w3.org/2000/svg">
<path d="M15.8993 0.402297C16.1263 -0.134099 16.8737 -0.134099 17.1007 0.402296L21.2982 10.3199C21.3929 10.5437 21.6001 10.6969 21.8385 10.7194L32.4054 11.7166C32.977 11.7705 33.2079 12.4938 32.7767 12.8793L24.804 20.0059C24.6241 20.1667 24.5449 20.4146 24.5976 20.6523L26.9308 31.1862C27.057 31.7559 26.4523 32.203 25.9588 31.9048L16.8339 26.3917C16.6281 26.2673 16.3719 26.2673 16.1661 26.3917L7.04117 31.9048C6.54765 32.203 5.94296 31.7559 6.06915 31.1862L8.40243 20.6523C8.45506 20.4146 8.3759 20.1667 8.19604 20.0059L0.223276 12.8793C-0.207932 12.4938 0.0230393 11.7705 0.594553 11.7166L11.1615 10.7194C11.3999 10.6969 11.6071 10.5437 11.7018 10.3199L15.8993 0.402297Z" fill="url(#paint0_linear_116_1604)"/>
<defs>
<linearGradient id="paint0_linear_116_1604" x1="16.5" y1="0" x2="16.5" y2="32" gradientUnits="userSpaceOnUse">
<stop stop-color="#FFC16F"/>
<stop offset="1" stop-color="#BB853F"/>
</linearGradient>
</defs>
</svg>
