<svg width="24" height="20" viewBox="0 0 24 20" fill="none" xmlns="http://www.w3.org/2000/svg">
<path d="M22.275 0.00697741C22.7051 -0.0335419 23.3355 0.0973266 23.499 0.533555C23.7815 1.28721 23.557 2.54756 23.455 3.32175L23.2409 4.9441C22.9708 6.89196 22.6745 8.83608 22.3526 10.7757C22.0805 12.4948 21.7919 14.211 21.4864 15.9242C21.3306 16.7893 21.2192 17.6396 20.976 18.4858C20.6336 19.678 19.9732 20.2807 18.7333 19.8729C18.4527 19.7778 18.1836 19.6511 17.9304 19.4955C17.6793 19.3431 17.434 19.1747 17.1955 19.0028C16.1648 18.2606 15.1064 17.5611 14.0623 16.8377L12.1867 15.5434C11.7821 15.2667 11.3588 15.0012 10.977 14.693C10.7526 14.512 10.4828 14.2677 10.3569 13.9999C10.2094 13.6858 10.2356 13.3607 10.3932 13.0584C10.687 12.4948 12.0099 11.2976 12.5085 10.8247C13.2314 10.1389 17.6802 5.98647 17.8264 5.49633C17.8573 5.39296 17.8749 5.25076 17.816 5.15375C17.7767 5.08882 17.7091 5.05275 17.6383 5.03556C17.3784 4.97247 17.1428 5.11202 16.9328 5.24877C15.9771 5.84579 14.9889 6.53273 14.0553 7.17034L10.3541 9.70485L8.71927 10.8343C8.30783 11.1188 7.89902 11.4148 7.4614 11.6564C7.06884 11.8732 6.62374 12.0509 6.18048 12.1176C5.89013 12.1614 5.58922 12.1456 5.3 12.1008C4.4549 11.9702 0.984406 11.0346 0.326235 10.5215C0.164897 10.3957 0.0270042 10.227 0.00330294 10.0146C-0.0166571 9.8355 0.0559556 9.66318 0.164173 9.52602C0.379546 9.253 0.711746 9.06375 1.01191 8.90596C1.61114 8.59084 2.26 8.33974 2.87916 8.0658L6.44988 6.4864C9.89776 4.94028 13.3619 3.43211 16.8416 1.9621C17.8114 1.55461 18.7855 1.15823 19.764 0.773024C20.4767 0.497745 21.5262 0.0822864 22.275 0.00697741Z" fill="#C2C2C2"/>
</svg>
