<svg width="30" height="30" viewBox="0 0 30 30" fill="none" xmlns="http://www.w3.org/2000/svg">
<path fill-rule="evenodd" clip-rule="evenodd" d="M13.7412 0.0336082C14.5907 -0.0580544 16.0809 0.0528409 16.919 0.185355C20.7111 0.794733 24.1045 2.88081 26.3517 5.98408C28.6064 9.08486 29.5237 12.9546 28.8997 16.7325C28.2841 20.5045 26.1901 23.8786 23.0781 26.1131C19.7191 28.5316 15.9837 29.2493 11.9353 28.6008C10.3627 28.3215 9.09122 27.7954 7.67545 27.0916C5.17748 27.7505 2.50093 28.501 0 29.0909C0.717403 26.6931 1.42098 24.0382 2.06572 21.6123C1.02246 19.8913 0.337038 17.6186 0.186381 15.6199C-0.136681 11.7734 1.10409 7.95865 3.63024 5.03174C6.25144 1.9996 9.7595 0.331592 13.7412 0.0336082ZM15.8252 2.49588C15.2833 2.44254 14.3201 2.41705 13.7577 2.46851C10.4339 2.77067 7.5362 4.15986 5.37915 6.7452C3.32329 9.19176 2.33391 12.3552 2.63063 15.5321C2.85241 17.856 3.51497 19.3083 4.69097 21.2457C4.37548 22.5617 3.88224 24.3539 3.48727 25.6527C4.91213 25.3774 6.61607 24.8219 8.06852 24.4877C9.30946 25.3231 10.9826 25.9585 12.4483 26.2236C12.5789 26.2472 13.0995 26.3291 13.1992 26.3257C16.4735 26.6617 19.5934 25.8361 22.1713 23.7439C24.6567 21.7409 26.2414 18.8362 26.5767 15.6691C26.9139 12.4943 25.9634 9.31693 23.9366 6.84398C21.9208 4.37783 19.0018 2.81304 15.8252 2.49588Z" fill="#C2C2C2"/>
<path d="M9.42535 7.7681C9.79044 7.76287 10.3163 7.70113 10.6404 7.87932C10.9347 8.0411 12.0976 10.9692 12.2302 11.4313C11.9564 12.323 11.4027 12.6024 10.9518 13.3095C11.083 13.7477 11.3288 14.0961 11.5894 14.4671C12.4849 15.7418 13.6687 16.8128 15.0643 17.5208C15.4442 17.7135 15.9587 17.9883 16.377 18.0553C16.9174 18.1105 17.9001 16.1735 18.2654 16.1865C18.9465 16.2108 20.7504 17.2515 21.4571 17.5606C21.6491 17.6445 21.8896 17.8052 21.928 17.9761C22.0436 18.4906 21.8054 19.3936 21.5518 19.8374C21.5263 19.8778 21.4992 19.9171 21.4707 19.9555C20.9378 20.6708 19.9812 21.1529 19.1148 21.3004C17.2032 21.626 13.8596 20.0609 12.404 18.9433C10.2525 17.1967 7.86196 14.5145 7.29832 11.7669C7.02178 10.4189 7.92485 7.96428 9.42535 7.7681Z" fill="#C2C2C2"/>
</svg>
